<svg preserveAspectRatio="none" width="100%" height="100%" overflow="visible" style="display: block;" viewBox="0 0 1640 329" fill="none" xmlns="http://www.w3.org/2000/svg">
<g id="Union">
<mask id="path-1-inside-1_0_18" fill="white">
<path d="M159.912 17C160.928 24.1595 161.436 27.7393 163.542 30.1826C164.235 30.9859 165.04 31.6848 165.933 32.2577C168.648 34 172.263 34 179.494 34H1618C1628.37 34 1633.56 34 1636.78 37.2218C1640 40.4437 1640 45.6291 1640 56V307C1640 317.371 1640 322.556 1636.78 325.778C1633.56 329 1628.37 329 1618 329H22C11.6291 329 6.44365 329 3.22183 325.778C0 322.556 0 317.371 0 307V56C0 45.6291 0 40.4437 3.22183 37.2218C6.44365 34 11.6291 34 22 34H38.1881C45.027 34 48.4465 34 51.0444 32.4559C52.2763 31.7238 53.3532 30.758 54.2147 29.6129C56.0315 27.1978 56.4025 23.7985 57.1445 17C57.8866 10.2015 58.2576 6.80218 60.0744 4.38711C60.9359 3.24198 62.0128 2.27621 63.2446 1.54407C65.8426 0 69.262 0 76.101 0H140.33C147.561 0 151.177 0 153.892 1.74232C154.784 2.31516 155.589 3.01408 156.282 3.81739C158.388 6.26071 158.896 9.84048 159.912 17Z"/>
</mask>
<path d="M159.912 17C160.928 24.1595 161.436 27.7393 163.542 30.1826C164.235 30.9859 165.04 31.6848 165.933 32.2577C168.648 34 172.263 34 179.494 34H1618C1628.37 34 1633.56 34 1636.78 37.2218C1640 40.4437 1640 45.6291 1640 56V307C1640 317.371 1640 322.556 1636.78 325.778C1633.56 329 1628.37 329 1618 329H22C11.6291 329 6.44365 329 3.22183 325.778C0 322.556 0 317.371 0 307V56C0 45.6291 0 40.4437 3.22183 37.2218C6.44365 34 11.6291 34 22 34H38.1881C45.027 34 48.4465 34 51.0444 32.4559C52.2763 31.7238 53.3532 30.758 54.2147 29.6129C56.0315 27.1978 56.4025 23.7985 57.1445 17C57.8866 10.2015 58.2576 6.80218 60.0744 4.38711C60.9359 3.24198 62.0128 2.27621 63.2446 1.54407C65.8426 0 69.262 0 76.101 0H140.33C147.561 0 151.177 0 153.892 1.74232C154.784 2.31516 155.589 3.01408 156.282 3.81739C158.388 6.26071 158.896 9.84048 159.912 17Z" fill="var(--fill-0, #212121)"/>
<path d="M153.892 1.74232L153.216 2.79433L153.892 1.74232ZM159.912 17L158.674 17.1756L159.912 17ZM156.282 3.81739L155.335 4.6336L156.282 3.81739ZM57.1445 17L55.9019 16.8644V16.8644L57.1445 17ZM60.0744 4.38711L59.0755 3.63565L60.0744 4.38711ZM63.2446 1.54407L63.8833 2.61861L63.2446 1.54407ZM54.2147 29.6129L55.2136 30.3644L54.2147 29.6129ZM3.22183 37.2218L2.33794 36.3379L3.22183 37.2218ZM3.22183 325.778L4.10571 324.894L3.22183 325.778ZM1636.78 325.778L1637.66 326.662L1636.78 325.778ZM1636.78 37.2218L1637.66 36.3379L1636.78 37.2218ZM165.933 32.2577L165.258 33.3097L165.933 32.2577ZM163.542 30.1826L164.489 29.3664L163.542 30.1826ZM179.494 34V35.25H1618V34V32.75H179.494V34ZM1640 56H1638.75V307H1640H1641.25V56H1640ZM1618 329V327.75H22V329V330.25H1618V329ZM0 307H1.25V56H0H-1.25V307H0ZM22 34V35.25H38.1881V34V32.75H22V34ZM76.101 0V1.25H140.33V0V-1.25H76.101V0ZM140.33 0V1.25C143.971 1.25 146.609 1.2515 148.678 1.46141C150.724 1.66891 152.089 2.07072 153.216 2.79433L153.892 1.74232L154.567 0.69031C152.979 -0.328398 151.179 -0.797754 148.93 -1.02583C146.706 -1.2515 143.92 -1.25 140.33 -1.25V0ZM159.912 17L161.15 16.8244C160.645 13.27 160.256 10.5116 159.72 8.34052C159.178 6.14627 158.46 4.42976 157.229 3.00119L156.282 3.81739L155.335 4.6336C156.21 5.64835 156.8 6.94337 157.292 8.93972C157.791 10.9592 158.163 13.5704 158.674 17.1756L159.912 17ZM153.892 1.74232L153.216 2.79433C154.008 3.30207 154.721 3.92157 155.335 4.6336L156.282 3.81739L157.229 3.00119C156.457 2.10659 155.561 1.32824 154.567 0.69031L153.892 1.74232ZM57.1445 17L58.3871 17.1356C58.7608 13.7126 59.0328 11.2321 59.4307 9.30213C59.8243 7.39256 60.32 6.13987 61.0733 5.13858L60.0744 4.38711L59.0755 3.63565C58.0119 5.04942 57.4137 6.70389 56.9822 8.79737C56.5548 10.8704 56.2703 13.4889 55.9019 16.8644L57.1445 17ZM76.101 0V-1.25C72.7054 -1.25 70.0715 -1.25131 67.9644 -1.0514C65.8364 -0.849527 64.1268 -0.43436 62.606 0.469534L63.2446 1.54407L63.8833 2.61861C64.9604 1.97843 66.2595 1.62156 68.2005 1.43742C70.1623 1.25131 72.6576 1.25 76.101 1.25V0ZM60.0744 4.38711L61.0733 5.13858C61.8369 4.12358 62.7914 3.26755 63.8833 2.61861L63.2446 1.54407L62.606 0.469534C61.2342 1.28487 60.0349 2.36039 59.0755 3.63565L60.0744 4.38711ZM38.1881 34V35.25C41.5836 35.25 44.2175 35.2513 46.3247 35.0514C48.4526 34.8495 50.1623 34.4344 51.6831 33.5305L51.0444 32.4559L50.4058 31.3814C49.3287 32.0216 48.0296 32.3784 46.0886 32.5626C44.1268 32.7487 41.6315 32.75 38.1881 32.75V34ZM57.1445 17L55.9019 16.8644C55.5283 20.2874 55.2563 22.7679 54.8584 24.6979C54.4647 26.6074 53.969 27.8601 53.2158 28.8614L54.2147 29.6129L55.2136 30.3644C56.2771 28.9506 56.8753 27.2961 57.3069 25.2026C57.7343 23.1296 58.0187 20.5111 58.3871 17.1356L57.1445 17ZM51.0444 32.4559L51.6831 33.5305C53.0549 32.7151 54.2542 31.6396 55.2136 30.3644L54.2147 29.6129L53.2158 28.8614C52.4522 29.8764 51.4976 30.7325 50.4058 31.3814L51.0444 32.4559ZM0 56H1.25C1.25 50.7792 1.25265 46.9894 1.64158 44.0966C2.02567 41.2397 2.76576 39.4457 4.10571 38.1057L3.22183 37.2218L2.33794 36.3379C0.456068 38.2198 -0.414761 40.6294 -0.836125 43.7635C-1.25265 46.8616 -1.25 50.8499 -1.25 56H0ZM22 34V32.75C16.8499 32.75 12.8616 32.7473 9.76345 33.1639C6.62939 33.5852 4.21982 34.4561 2.33794 36.3379L3.22183 37.2218L4.10571 38.1057C5.44566 36.7658 7.23973 36.0257 10.0966 35.6416C12.9894 35.2527 16.7792 35.25 22 35.25V34ZM22 329V327.75C16.7792 327.75 12.9894 327.747 10.0966 327.358C7.23973 326.974 5.44566 326.234 4.10571 324.894L3.22183 325.778L2.33794 326.662C4.21982 328.544 6.62938 329.415 9.76344 329.836C12.8615 330.253 16.8499 330.25 22 330.25V329ZM0 307H-1.25C-1.25 312.15 -1.25265 316.138 -0.836125 319.237C-0.414761 322.371 0.456068 324.78 2.33794 326.662L3.22183 325.778L4.10571 324.894C2.76576 323.554 2.02567 321.76 1.64158 318.903C1.25265 316.011 1.25 312.221 1.25 307H0ZM1640 307H1638.75C1638.75 312.221 1638.75 316.011 1638.36 318.903C1637.97 321.76 1637.23 323.554 1635.89 324.894L1636.78 325.778L1637.66 326.662C1639.54 324.78 1640.41 322.371 1640.84 319.237C1641.25 316.138 1641.25 312.15 1641.25 307H1640ZM1618 329V330.25C1623.15 330.25 1627.14 330.253 1630.24 329.836C1633.37 329.415 1635.78 328.544 1637.66 326.662L1636.78 325.778L1635.89 324.894C1634.55 326.234 1632.76 326.974 1629.9 327.358C1627.01 327.747 1623.22 327.75 1618 327.75V329ZM1618 34V35.25C1623.22 35.25 1627.01 35.2527 1629.9 35.6416C1632.76 36.0257 1634.55 36.7658 1635.89 38.1057L1636.78 37.2218L1637.66 36.3379C1635.78 34.4561 1633.37 33.5852 1630.24 33.1639C1627.14 32.7473 1623.15 32.75 1618 32.75V34ZM1640 56H1641.25C1641.25 50.8499 1641.25 46.8616 1640.84 43.7635C1640.41 40.6294 1639.54 38.2198 1637.66 36.3379L1636.78 37.2218L1635.89 38.1057C1637.23 39.4457 1637.97 41.2397 1638.36 44.0966C1638.75 46.9894 1638.75 50.7792 1638.75 56H1640ZM179.494 34V32.75C175.853 32.75 173.216 32.7485 171.146 32.5386C169.1 32.3311 167.735 31.9293 166.608 31.2057L165.933 32.2577L165.258 33.3097C166.845 34.3284 168.645 34.7978 170.894 35.0258C173.119 35.2515 175.905 35.25 179.494 35.25V34ZM159.912 17L158.674 17.1756C159.179 20.73 159.569 23.4884 160.105 25.6595C160.646 27.8537 161.364 29.5702 162.596 30.9988L163.542 30.1826L164.489 29.3664C163.614 28.3517 163.025 27.0566 162.532 25.0603C162.033 23.0408 161.661 20.4296 161.15 16.8244L159.912 17ZM165.933 32.2577L166.608 31.2057C165.817 30.6979 165.103 30.0784 164.489 29.3664L163.542 30.1826L162.596 30.9988C163.367 31.8934 164.263 32.6718 165.258 33.3097L165.933 32.2577Z" fill="var(--stroke-0, #2F2F2F)" mask="url(#path-1-inside-1_0_18)"/>
</g>
</svg>
