<svg width="20" height="16" viewBox="0 0 20 16" fill="none" xmlns="http://www.w3.org/2000/svg">
<path d="M7.54481 0.0719273C7.64032 -0.0239833 7.79529 -0.0239683 7.89081 0.0719273L9.83254 2.02162C9.92806 2.11754 10.084 2.11754 10.1795 2.02162L12.1074 0.0858466C12.2029 -0.0100715 12.3588 -0.0100717 12.4543 0.0858466L14.4985 2.13894C14.5442 2.18488 14.6067 2.21041 14.6715 2.21052H17.5488C17.6835 2.21076 17.7924 2.3203 17.7924 2.4551V5.34534C17.7924 5.40996 17.8184 5.47254 17.864 5.51834L19.928 7.59032C20.0229 7.68559 20.0227 7.83997 19.928 7.93532L17.864 10.0083C17.8185 10.054 17.7924 10.1158 17.7924 10.1803V13.0676C17.7924 13.2023 17.6835 13.3119 17.5488 13.3121H14.6755C14.6105 13.3122 14.5483 13.3377 14.5025 13.3837L12.4543 15.4408C12.3588 15.5367 12.2029 15.5367 12.1074 15.4408L10.1656 13.4901C10.0702 13.3946 9.91505 13.3946 9.81962 13.4901L7.89081 15.4269C7.79529 15.5228 7.64033 15.5228 7.54481 15.4269L5.49669 13.3698C5.45084 13.3238 5.38767 13.2982 5.3227 13.2982H2.41457C2.27961 13.2982 2.16999 13.1886 2.16999 13.0536V10.1306C2.16999 10.066 2.14395 10.0044 2.0984 9.95858L0.0711603 7.92239C-0.0237467 7.82708 -0.0236935 7.67274 0.0711603 7.5774L2.0984 5.54121C2.144 5.49541 2.16999 5.43283 2.16999 5.36821V2.44119C2.17008 2.30632 2.27967 2.1966 2.41457 2.1966H5.32668C5.39159 2.1966 5.45383 2.17097 5.49968 2.12502L7.54481 0.0719273ZM12.9196 3.91862C11.8289 3.91862 10.8495 4.41109 10.1785 5.19124C10.0644 5.32377 9.85625 5.32371 9.74207 5.19124C9.07113 4.4111 8.0917 3.91863 7.00097 3.91862C4.97824 3.91862 3.33821 5.60993 3.33821 7.69571C3.33823 9.78147 4.97825 11.4728 7.00097 11.4728C8.0917 11.4728 9.07113 10.9803 9.74207 10.2002C9.85626 10.0677 10.0644 10.0676 10.1785 10.2002C10.8495 10.9803 11.8289 11.4728 12.9196 11.4728C14.9423 11.4727 16.5824 9.78142 16.5824 7.69571C16.5824 5.60999 14.9423 3.9187 12.9196 3.91862Z" fill="white" fill-opacity="0.2"/>
</svg>
