<svg preserveAspectRatio="none" width="99" height="27" viewBox="0 0 99 27" fill="none" xmlns="http://www.w3.org/2000/svg">
<path d="M84.7402 27H14.626C9.50963 27 6.95142 27 5.09093 25.615C4.90663 25.4778 4.7292 25.3317 4.55928 25.177C2.84392 23.6159 2.35444 21.105 1.37547 16.0831C-0.0182909 8.93338 -0.715172 5.35853 1.06459 2.89774C1.23688 2.65953 1.424 2.43241 1.62484 2.21773C3.69963 0 7.34177 0 14.626 0H84.7402C90.8549 0 93.9123 0 95.9047 1.7805C96.0999 1.955 96.2852 2.14031 96.4597 2.33557C98.2402 4.32796 98.2402 7.38531 98.2402 13.5C98.2402 19.6147 98.2402 22.672 96.4597 24.6644C96.2852 24.8597 96.0999 25.045 95.9047 25.2195C93.9123 27 90.8549 27 84.7402 27Z" fill="url(#paint0_linear_357_7722)" fill-opacity="0.7"/>
<defs>
<linearGradient id="paint0_linear_357_7722" x1="45.3715" y1="7.85455" x2="45.3715" y2="26.5091" gradientUnits="userSpaceOnUse">
<stop stop-color="white" stop-opacity="0.1"/>
<stop offset="1" stop-color="white" stop-opacity="0.15"/>
</linearGradient>
</defs>
</svg>
