<svg preserveAspectRatio="none" width="100%" height="100%" overflow="visible" style="display: block;" viewBox="0 0 12.8333 12.8333" fill="none" xmlns="http://www.w3.org/2000/svg">
<g id="Vector">
<path d="M7 3.5H8.16667V4.66667H7V5.83333H8.16667V7H7V8.16667H8.16667V9.33333H7V10.5H5.83333V9.33333H4.66667V8.16667H5.83333V7H4.66667V5.83333H5.83333V4.66667H4.66667V3.5H5.83333V2.33333H7V3.5Z" fill="var(--fill-0, white)"/>
<path d="M4.66667 4.66667V5.83333H3.5V4.66667H4.66667Z" fill="var(--fill-0, white)"/>
<path d="M8.16667 8.16667V7H9.33333V8.16667H8.16667Z" fill="var(--fill-0, white)"/>
<path fill-rule="evenodd" clip-rule="evenodd" d="M3.5 0V1.16667H2.33333V2.33333H1.16667V3.5H0V9.33333H1.16667V10.5H2.33333V11.6667H3.5V12.8333H9.33333V11.6667H10.5V10.5H11.6667V9.33333H12.8333V3.5H11.6667V2.33333H10.5V1.16667H9.33333V0H3.5ZM9.33333 1.16667V2.33333H10.5V3.5H11.6667V9.33333H10.5V10.5H9.33333V11.6667H3.5V10.5H2.33333V9.33333H1.16667V3.5H2.33333V2.33333H3.5V1.16667H9.33333Z" fill="var(--fill-0, white)"/>
</g>
</svg>
