<svg preserveAspectRatio="none" width="100%" height="100%" overflow="visible" style="display: block;" viewBox="0 0 9.33333 8.16667" fill="none" xmlns="http://www.w3.org/2000/svg">
<g id="Vector">
<path d="M3.5 1.16667L1.16667 1.16667L1.16667 2.33333H0V0H3.5V1.16667Z" fill="var(--fill-0, white)"/>
<path d="M5.83333 2.33333H3.5V1.16667L5.83333 1.16667V2.33333Z" fill="var(--fill-0, white)"/>
<path d="M8.16667 3.5H5.83333V2.33333L8.16667 2.33333V3.5Z" fill="var(--fill-0, white)"/>
<path d="M8.16667 4.66667V3.5H9.33333V4.66667H8.16667Z" fill="var(--fill-0, white)"/>
<path d="M5.83333 5.83333V4.66667H8.16667V5.83333H5.83333Z" fill="var(--fill-0, white)"/>
<path d="M3.5 7V5.83333H5.83333V7H3.5Z" fill="var(--fill-0, white)"/>
<path d="M1.16667 5.83333H0V8.16667H3.5V7H1.16667V5.83333Z" fill="var(--fill-0, white)"/>
<path d="M2.33333 4.66667V5.83333H1.16667V4.66667H2.33333Z" fill="var(--fill-0, white)"/>
<path fill-rule="evenodd" clip-rule="evenodd" d="M2.33333 3.5V2.33333H1.16667L1.16667 3.5H2.33333ZM2.33333 3.5H3.5V4.66667H2.33333V3.5Z" fill="var(--fill-0, white)"/>
</g>
</svg>
