<svg preserveAspectRatio="none" width="100%" height="100%" overflow="visible" style="display: block;" viewBox="0 0 19.6437 15.237" fill="none" xmlns="http://www.w3.org/2000/svg">
<path id="Subtract" d="M7.41073 0.0706599C7.50454 -0.0235533 7.65676 -0.0235533 7.75057 0.0706599L9.6578 1.9857C9.75162 2.07991 9.9048 2.07991 9.99862 1.9857L11.8922 0.0833553C11.986 -0.0108504 12.1392 -0.0108354 12.233 0.0833553L14.2408 2.09996C14.2857 2.14508 14.3471 2.17113 14.4107 2.17125H17.2369C17.3693 2.17147 17.4762 2.27907 17.4762 2.41148V5.25035C17.4762 5.31373 17.5018 5.37433 17.5465 5.41929L19.5738 7.45543C19.667 7.54906 19.667 7.70067 19.5738 7.79429L17.5465 9.83043C17.5018 9.87538 17.4762 9.936 17.4762 9.99937V12.8353C17.476 12.9676 17.3692 13.0743 17.2369 13.0746H14.4146C14.3509 13.0746 14.2897 13.1007 14.2447 13.1459L12.233 15.1664C12.1392 15.2605 11.986 15.2606 11.8922 15.1664L9.98495 13.2503C9.89116 13.1564 9.73887 13.1563 9.6451 13.2503L7.75057 15.1527C7.65676 15.2468 7.50453 15.2469 7.41073 15.1527L5.39901 13.1322C5.35397 13.087 5.29195 13.0619 5.22811 13.0619H2.37167C2.23911 13.0619 2.13143 12.9542 2.13143 12.8216V9.95054C2.13143 9.88707 2.10591 9.8256 2.06112 9.78062L0.0699089 7.78062C-0.0232858 7.68697 -0.0233202 7.53538 0.0699089 7.44175L2.06112 5.44175C2.10588 5.39679 2.13142 5.33625 2.13143 5.27281V2.39781C2.13143 2.26526 2.23911 2.15757 2.37167 2.15757H5.23202C5.29571 2.15757 5.35693 2.1323 5.40194 2.08726L7.41073 0.0706599ZM12.69 3.84898C11.6188 3.84898 10.6567 4.33186 9.99764 5.098C9.88549 5.22841 9.68108 5.22841 9.56893 5.098C8.90992 4.33182 7.94783 3.84899 6.87655 3.84898C4.88978 3.84898 3.27889 5.51024 3.27889 7.55894C3.27907 9.60749 4.88988 11.2679 6.87655 11.2679C7.9479 11.2679 8.90991 10.7852 9.56893 10.0189C9.68109 9.88852 9.8855 9.8885 9.99764 10.0189C10.6567 10.7851 11.6187 11.2679 12.69 11.2679C14.6766 11.2678 16.2875 9.60745 16.2877 7.55894C16.2877 5.51028 14.6767 3.84906 12.69 3.84898Z" fill="var(--fill-0, white)" fill-opacity="0.2"/>
</svg>
