<svg preserveAspectRatio="none" width="100%" height="100%" overflow="visible" style="display: block;" viewBox="0 0 33.1486 43" fill="none" xmlns="http://www.w3.org/2000/svg">
<g id="Union" filter="url(#filter0_dddd_0_21)">
<path d="M22.0743 1.5C26.8045 1.5 30.8709 5.41357 30.6391 10.517C30.4072 15.6204 28.0915 16.0725 26.472 18.6296C24.8525 21.1868 24.1478 25.3504 24.1478 25.3504C23.5691 26.8404 21.5839 26.8949 20.9322 25.4386C20.9322 25.4386 19.4994 20.9813 18.1387 18.8611C16.778 16.7409 13.7409 15.6204 13.5094 10.517C13.278 5.41357 17.344 1.5 22.0743 1.5Z" fill="var(--fill-0, #F22929)"/>
<path d="M22.0743 1.5C26.8045 1.5 30.8709 5.41357 30.6391 10.517C30.4072 15.6204 28.0915 16.0725 26.472 18.6296C24.8525 21.1868 24.1478 25.3504 24.1478 25.3504C23.5691 26.8404 21.5839 26.8949 20.9322 25.4386C20.9322 25.4386 19.4994 20.9813 18.1387 18.8611C16.778 16.7409 13.7409 15.6204 13.5094 10.517C13.278 5.41357 17.344 1.5 22.0743 1.5Z" stroke="var(--stroke-0, white)"/>
</g>
<defs>
<filter id="filter0_dddd_0_21" x="2.38419e-07" y="0" width="33.1486" height="43" filterUnits="userSpaceOnUse" color-interpolation-filters="sRGB">
<feFlood flood-opacity="0" result="BackgroundImageFix"/>
<feColorMatrix in="SourceAlpha" type="matrix" values="0 0 0 0 0 0 0 0 0 0 0 0 0 0 0 0 0 0 127 0" result="hardAlpha"/>
<feOffset dy="1"/>
<feGaussianBlur stdDeviation="1"/>
<feColorMatrix type="matrix" values="0 0 0 0 0 0 0 0 0 0 0 0 0 0 0 0 0 0 0.1 0"/>
<feBlend mode="normal" in2="BackgroundImageFix" result="effect1_dropShadow_0_21"/>
<feColorMatrix in="SourceAlpha" type="matrix" values="0 0 0 0 0 0 0 0 0 0 0 0 0 0 0 0 0 0 127 0" result="hardAlpha"/>
<feOffset dx="-2" dy="3"/>
<feGaussianBlur stdDeviation="1.5"/>
<feColorMatrix type="matrix" values="0 0 0 0 0 0 0 0 0 0 0 0 0 0 0 0 0 0 0.09 0"/>
<feBlend mode="normal" in2="effect1_dropShadow_0_21" result="effect2_dropShadow_0_21"/>
<feColorMatrix in="SourceAlpha" type="matrix" values="0 0 0 0 0 0 0 0 0 0 0 0 0 0 0 0 0 0 127 0" result="hardAlpha"/>
<feOffset dx="-4" dy="6"/>
<feGaussianBlur stdDeviation="2.5"/>
<feColorMatrix type="matrix" values="0 0 0 0 0 0 0 0 0 0 0 0 0 0 0 0 0 0 0.05 0"/>
<feBlend mode="normal" in2="effect2_dropShadow_0_21" result="effect3_dropShadow_0_21"/>
<feColorMatrix in="SourceAlpha" type="matrix" values="0 0 0 0 0 0 0 0 0 0 0 0 0 0 0 0 0 0 127 0" result="hardAlpha"/>
<feOffset dx="-8" dy="11"/>
<feGaussianBlur stdDeviation="2.5"/>
<feColorMatrix type="matrix" values="0 0 0 0 0 0 0 0 0 0 0 0 0 0 0 0 0 0 0.01 0"/>
<feBlend mode="normal" in2="effect3_dropShadow_0_21" result="effect4_dropShadow_0_21"/>
<feBlend mode="normal" in="SourceGraphic" in2="effect4_dropShadow_0_21" result="shape"/>
</filter>
</defs>
</svg>
