<svg preserveAspectRatio="none" width="100%" height="100%" overflow="visible" style="display: block;" viewBox="0 0 40.8121 23.8594" fill="none" xmlns="http://www.w3.org/2000/svg">
<g id="Rectangle 869555666">
<path d="M0 5.02303C0 2.65515 0 1.47121 0.735606 0.735606C1.47121 0 2.65515 0 5.02303 0H7.38081C8.23454 0 8.6614 0 9.05761 0.13594C9.45381 0.271881 9.79076 0.533951 10.4647 1.05809L10.5693 1.13949C11.2432 1.66363 11.5801 1.9257 11.9763 2.06164C12.3726 2.19758 12.7994 2.19758 13.6531 2.19758H35.7891C38.157 2.19758 39.3409 2.19758 40.0765 2.93318C40.8121 3.66879 40.8121 4.85273 40.8121 7.22061V18.8364C40.8121 21.2043 40.8121 22.3882 40.0765 23.1238C39.3409 23.8594 38.157 23.8594 35.7891 23.8594H5.02304C2.65515 23.8594 1.47121 23.8594 0.735606 23.1238C0 22.3882 0 21.2043 0 18.8364V5.02303Z" fill="var(--fill-0, #7BCEF2)"/>
<path d="M5.02344 0.157227H7.38086C8.24501 0.157227 8.64112 0.158699 9.00684 0.28418C9.37248 0.409656 9.68624 0.651256 10.3682 1.18164L10.4727 1.26367C11.1383 1.7814 11.4991 2.06356 11.9258 2.20996C12.3524 2.35626 12.8102 2.35449 13.6533 2.35449H35.7891C36.9774 2.35449 37.8534 2.35509 38.5244 2.44531C39.1907 2.53494 39.6321 2.71024 39.9658 3.04395C40.2995 3.37766 40.4748 3.81906 40.5645 4.48535C40.6547 5.15638 40.6553 6.03233 40.6553 7.2207V18.8359C40.6553 20.0243 40.6547 20.9003 40.5645 21.5713C40.4749 22.2377 40.2995 22.6789 39.9658 23.0127C39.6321 23.3464 39.1907 23.5227 38.5244 23.6123C37.8534 23.7025 36.9774 23.7021 35.7891 23.7021H5.02344C3.83506 23.7021 2.95912 23.7025 2.28809 23.6123C1.62157 23.5227 1.18046 23.3465 0.84668 23.0127C0.512915 22.6789 0.336679 22.2378 0.24707 21.5713C0.156859 20.9003 0.157227 20.0243 0.157227 18.8359V5.02344C0.157227 3.83507 0.156855 2.95911 0.24707 2.28809C0.336681 1.62157 0.512903 1.18046 0.84668 0.84668C1.18046 0.512903 1.62157 0.336681 2.28809 0.24707C2.95911 0.156854 3.83507 0.157227 5.02344 0.157227Z" stroke="url(#paint0_linear_0_22)" stroke-opacity="0.8" stroke-width="0.31394"/>
</g>
<defs>
<linearGradient id="paint0_linear_0_22" x1="20.4061" y1="0" x2="20.4061" y2="23.8594" gradientUnits="userSpaceOnUse">
<stop stop-color="#B1F6F1"/>
<stop offset="1" stop-color="#B1F6F1" stop-opacity="0"/>
</linearGradient>
</defs>
</svg>
