<svg preserveAspectRatio="none" width="100%" height="100%" overflow="visible" style="display: block;" viewBox="0 0 385.703 244.979" fill="none" xmlns="http://www.w3.org/2000/svg">
<path id="Vector 1567" d="M0.203216 0.979134L23.3339 5.77984C25.0074 6.12718 25.8442 6.30086 26.5907 6.69319C27.3372 7.08553 27.9548 7.67627 29.1899 8.85774L35.0992 14.5101C36.4444 15.7968 37.117 16.4401 37.9257 16.8448C38.2206 16.9924 38.5271 17.1154 38.8422 17.2126C39.7064 17.4791 40.6371 17.4791 42.4985 17.4791C46.9071 17.4791 49.1114 17.4791 50.6691 18.5814C51.224 18.9741 51.7082 19.4583 52.1009 20.0133C53.2032 21.5709 53.2032 23.7752 53.2032 28.1838V30.4791V44.7926C53.2032 47.5879 53.2032 48.9856 53.7812 50.2052C54.3592 51.4249 55.4409 52.31 57.6044 54.0801L59.8021 55.8782C61.9655 57.6483 63.0473 58.5333 63.6252 59.753C64.2032 60.9727 64.2032 62.3704 64.2032 65.1657V67.8399C64.2032 70.1326 64.2032 71.2789 64.6069 72.3231C65.0106 73.3672 65.7817 74.2154 67.3239 75.9119L70.6324 79.5512C72.3912 81.4859 73.2706 82.4533 74.4301 82.9662C75.5896 83.4791 76.8969 83.4791 79.5117 83.4791H86.0904C88.1278 83.4791 89.1465 83.4791 90.0921 83.8032C91.0378 84.1273 91.8423 84.7522 93.4513 86.002L137.312 120.068C139.472 121.746 140.552 122.585 141.841 122.882C143.13 123.179 144.468 122.897 147.145 122.334L167.773 117.991C168.984 117.736 169.589 117.608 170.204 117.606C170.818 117.604 171.424 117.727 172.637 117.974L197.056 122.941C198.374 123.209 199.033 123.343 199.642 123.616C200.25 123.889 200.788 124.293 201.864 125.1L248.503 160.079C250.089 161.269 250.882 161.863 251.806 162.171C252.73 162.479 253.721 162.479 255.703 162.479H282.603C283.65 162.479 284.174 162.479 284.687 162.569C285.201 162.659 285.693 162.837 286.679 163.192L300.728 168.266C301.713 168.622 302.206 168.799 302.719 168.889C303.232 168.979 303.756 168.979 304.804 168.979H312.532C314.354 168.979 315.265 168.979 316.123 169.242C316.981 169.504 317.736 170.014 319.246 171.033L330.917 178.911C333.505 180.658 334.8 181.532 335.501 182.852C336.203 184.173 336.203 185.734 336.203 188.857V199.199C336.203 200.829 336.203 201.644 336.416 202.421C336.628 203.198 337.043 203.9 337.872 205.303L339.472 208.01C340.924 210.468 341.65 211.696 342.771 212.453C343.02 212.621 343.281 212.77 343.552 212.899C344.774 213.479 346.201 213.479 349.055 213.479C351.387 213.479 352.553 213.479 353.601 213.886C353.835 213.977 354.063 214.082 354.283 214.202C355.272 214.737 356.027 215.625 357.537 217.401L359.846 220.118C361.26 221.781 361.966 222.612 362.335 223.615C362.703 224.617 362.703 225.708 362.703 227.89V229.46C362.703 232.175 362.703 233.533 363.252 234.727C363.801 235.92 364.832 236.804 366.894 238.571L369.833 241.09C371.5 242.519 372.334 243.234 373.341 243.606C374.349 243.979 375.446 243.979 377.642 243.979H385.703" stroke="var(--stroke-0, #466BFF)" stroke-opacity="0.6" stroke-width="2"/>
</svg>
