<svg width="16" height="16" viewBox="0 0 16 16" fill="none" xmlns="http://www.w3.org/2000/svg">
<g opacity="0.8" clip-path="url(#clip0_368_827)">
<path d="M10.3451 3.49759L11.5137 3.33283L11.6785 4.50141L12.8471 4.33665L13.0118 5.50523L14.1804 5.34047L14.0156 4.17189L12.8471 4.33665L12.6823 3.16807L11.5137 3.33283L11.349 2.16425L10.1804 2.32901L10.3451 3.49759Z" fill="white"/>
<path d="M9.83561 8.33667L10.0004 9.50524L7.66321 9.83476L7.16893 6.32903L8.33751 6.16427L8.66703 8.50143L9.83561 8.33667Z" fill="white"/>
<path fill-rule="evenodd" clip-rule="evenodd" d="M5.83559 5.32521L4.66701 5.48997L4.83177 6.65855L3.6632 6.82331L3.82796 7.99189L2.65938 8.15665L3.15366 11.6624L4.32224 11.4976L4.65176 13.8348L6.98891 13.5053L7.15368 14.6738L10.6594 14.1796L10.4947 13.011L12.8318 12.6815L12.5023 10.3443L13.6709 10.1795L13.1766 6.67381L12.008 6.83857L11.8432 5.66999L10.6747 5.83475L10.5099 4.66617L9.34133 4.83093L9.17657 3.66235L5.67083 4.15663L5.83559 5.32521ZM5.83559 5.32521L9.34133 4.83093L9.50609 5.99951L10.6747 5.83475L10.8394 7.00333L12.008 6.83857L12.5023 10.3443L11.3337 10.5091L11.4985 11.6776L10.3299 11.8424L10.4947 13.011L6.98891 13.5053L6.82415 12.3367L5.65558 12.5014L5.49082 11.3329L4.32224 11.4976L3.82796 7.99189L4.99653 7.82713L4.83177 6.65855L6.00035 6.49379L5.83559 5.32521Z" fill="white"/>
<path d="M4.50225 4.32139L3.33368 4.48615L3.16892 3.31757L4.33749 3.15281L4.50225 4.32139Z" fill="white"/>
<path d="M2.32986 5.81949L3.49844 5.65473L3.33368 4.48615L2.1651 4.65091L2.32986 5.81949Z" fill="white"/>
<path d="M2.32986 5.81949L2.49462 6.98807L1.32604 7.15283L1.16128 5.98425L2.32986 5.81949Z" fill="white"/>
</g>
<defs>
<clipPath id="clip0_368_827">
<rect width="14" height="14" fill="white" transform="translate(0 1.97666) scale(1.01155) rotate(-8.02535)"/>
</clipPath>
</defs>
</svg>
