<svg width="16" height="16" viewBox="0 0 16 16" fill="none" xmlns="http://www.w3.org/2000/svg">
<g opacity="0.8">
<path d="M9.08612 7.25065L7.91754 7.41541L7.2585 2.74109L8.42707 2.57633L9.08612 7.25065Z" fill="white"/>
<path d="M7.91754 7.41541L7.75278 6.24683L12.4271 5.58779L12.5919 6.75637L7.91754 7.41541Z" fill="white"/>
<path d="M6.91372 8.74875L8.0823 8.58399L8.74134 13.2583L7.57276 13.4231L6.91372 8.74875Z" fill="white"/>
<path d="M8.41182 10.9211L9.5804 10.7564L9.74516 11.925L8.57658 12.0897L8.41182 10.9211Z" fill="white"/>
<path d="M3.24322 8.07445L4.4118 7.90969L4.57656 9.07827L3.40798 9.24303L3.24322 8.07445Z" fill="white"/>
<path d="M9.41564 9.58781L10.5842 9.42304L10.749 10.5916L9.5804 10.7564L9.41564 9.58781Z" fill="white"/>
<path d="M4.24704 6.74111L5.41562 6.57635L5.58038 7.74493L4.4118 7.90969L4.24704 6.74111Z" fill="white"/>
<path d="M10.4195 8.25447L11.588 8.08971L11.7528 9.25828L10.5842 9.42304L10.4195 8.25447Z" fill="white"/>
<path d="M5.25086 5.40777L6.41944 5.24301L6.5842 6.41159L5.41562 6.57635L5.25086 5.40777Z" fill="white"/>
<path d="M11.4233 6.92113L12.5919 6.75637L12.7566 7.92495L11.588 8.08971L11.4233 6.92113Z" fill="white"/>
<path d="M6.25468 4.07443L7.42326 3.90967L7.58802 5.07825L6.41944 5.24301L6.25468 4.07443Z" fill="white"/>
<path d="M8.0823 8.58399L8.24706 9.75257L3.57274 10.4116L3.40798 9.24303L8.0823 8.58399Z" fill="white"/>
</g>
</svg>
