<svg width="174" height="35" viewBox="0 0 174 35" fill="none" xmlns="http://www.w3.org/2000/svg">
<mask id="path-1-inside-1_368_858" fill="white">
<path d="M167.921 2.79533C170.282 4.57018 171.463 5.4576 172.232 6.63991C172.588 7.18598 172.875 7.77343 173.088 8.38921C173.549 9.72244 173.525 11.199 173.478 14.1521L173.444 16.2574C173.324 23.6887 173.265 27.4044 170.93 29.7022C168.594 32 164.878 32 157.446 32H46.8271C45.5181 32 44.8636 32 44.2206 32.1054C43.5776 32.2109 42.9574 32.4199 41.717 32.838L37.7883 34.162C36.5479 34.5801 35.9277 34.7891 35.2847 34.8946C34.6417 35 33.9872 35 32.6783 35H16.0334C8.40142 35 4.58541 35 2.23616 32.6202C-0.1131 30.2404 -0.0638066 26.4247 0.0347796 18.7933L0.0735352 15.7933C0.16982 8.34007 0.217963 4.61345 2.55468 2.30673C4.8914 0 8.61833 0 16.0722 0H159.552C161.512 0 162.491 0 163.424 0.227111C163.857 0.332511 164.28 0.473885 164.69 0.649758C165.572 1.02872 166.355 1.61759 167.921 2.79533Z"/>
</mask>
<path d="M167.921 2.79533C170.282 4.57018 171.463 5.4576 172.232 6.63991C172.588 7.18598 172.875 7.77343 173.088 8.38921C173.549 9.72244 173.525 11.199 173.478 14.1521L173.444 16.2574C173.324 23.6887 173.265 27.4044 170.93 29.7022C168.594 32 164.878 32 157.446 32H46.8271C45.5181 32 44.8636 32 44.2206 32.1054C43.5776 32.2109 42.9574 32.4199 41.717 32.838L37.7883 34.162C36.5479 34.5801 35.9277 34.7891 35.2847 34.8946C34.6417 35 33.9872 35 32.6783 35H16.0334C8.40142 35 4.58541 35 2.23616 32.6202C-0.1131 30.2404 -0.0638066 26.4247 0.0347796 18.7933L0.0735352 15.7933C0.16982 8.34007 0.217963 4.61345 2.55468 2.30673C4.8914 0 8.61833 0 16.0722 0H159.552C161.512 0 162.491 0 163.424 0.227111C163.857 0.332511 164.28 0.473885 164.69 0.649758C165.572 1.02872 166.355 1.61759 167.921 2.79533Z" fill="#1A1A1A"/>
<path d="M167.921 2.79533C170.282 4.57018 171.463 5.4576 172.232 6.63991C172.588 7.18598 172.875 7.77343 173.088 8.38921C173.549 9.72244 173.525 11.199 173.478 14.1521L173.444 16.2574C173.324 23.6887 173.265 27.4044 170.93 29.7022C168.594 32 164.878 32 157.446 32H46.8271C45.5181 32 44.8636 32 44.2206 32.1054C43.5776 32.2109 42.9574 32.4199 41.717 32.838L37.7883 34.162C36.5479 34.5801 35.9277 34.7891 35.2847 34.8946C34.6417 35 33.9872 35 32.6783 35H16.0334C8.40142 35 4.58541 35 2.23616 32.6202C-0.1131 30.2404 -0.0638066 26.4247 0.0347796 18.7933L0.0735352 15.7933C0.16982 8.34007 0.217963 4.61345 2.55468 2.30673C4.8914 0 8.61833 0 16.0722 0H159.552C161.512 0 162.491 0 163.424 0.227111C163.857 0.332511 164.28 0.473885 164.69 0.649758C165.572 1.02872 166.355 1.61759 167.921 2.79533Z" fill="url(#paint0_linear_368_858)" fill-opacity="0.17"/>
<path d="M163.424 0.227111L163.661 -0.7445L163.424 0.227111ZM167.921 2.79533L167.32 3.59463L167.921 2.79533ZM164.69 0.649758L165.084 -0.269022L164.69 0.649758ZM2.23616 32.6202L2.94781 31.9177L2.23616 32.6202ZM37.7883 34.162L38.1077 35.1097L37.7883 34.162ZM35.2847 34.8946L35.1229 33.9077L35.2847 34.8946ZM41.717 32.838L41.3977 31.8903L41.717 32.838ZM44.2206 32.1054L44.3825 33.0923L44.2206 32.1054ZM173.444 16.2574L174.444 16.2735L173.444 16.2574ZM170.93 29.7022L170.228 28.9894L170.93 29.7022ZM173.478 14.1521L174.478 14.1682L173.478 14.1521ZM173.088 8.38921L174.033 8.06232L173.088 8.38921ZM172.232 6.63991L171.394 7.18545L172.232 6.63991ZM173.478 14.1521L172.478 14.136L172.444 16.2414L173.444 16.2574L174.444 16.2735L174.478 14.1682L173.478 14.1521ZM157.446 32V31H46.8271V32V33H157.446V32ZM41.717 32.838L41.3977 31.8903L37.4689 33.2144L37.7883 34.162L38.1077 35.1097L42.0364 33.7856L41.717 32.838ZM32.6783 35V34H16.0334V35V36H32.6783V35ZM0.0347796 18.7933L1.0347 18.8062L1.07345 15.8062L0.0735352 15.7933L-0.926381 15.7804L-0.965137 18.7804L0.0347796 18.7933ZM16.0722 0V1H159.552V0V-1H16.0722V0ZM159.552 0V1C161.559 1 162.398 1.00655 163.188 1.19872L163.424 0.227111L163.661 -0.7445C162.585 -1.00655 161.464 -1 159.552 -1V0ZM167.921 2.79533L168.522 1.99603C166.994 0.846712 166.102 0.168236 165.084 -0.269022L164.69 0.649758L164.295 1.56854C165.041 1.88921 165.716 2.38847 167.32 3.59463L167.921 2.79533ZM163.424 0.227111L163.188 1.19872C163.566 1.29095 163.937 1.41465 164.295 1.56854L164.69 0.649758L165.084 -0.269022C164.624 -0.466879 164.148 -0.625925 163.661 -0.7445L163.424 0.227111ZM0.0735352 15.7933L1.07345 15.8062C1.12196 12.0515 1.15914 9.33555 1.46332 7.26546C1.76328 5.22406 2.30476 3.95861 3.25721 3.01839L2.55468 2.30673L1.85216 1.59507C0.467886 2.96157 -0.183069 4.7128 -0.515431 6.9747C-0.843576 9.20791 -0.878602 12.0819 -0.926381 15.7804L0.0735352 15.7933ZM16.0722 0V-1C12.3733 -1 9.49919 -1.0021 7.26193 -0.702831C4.99592 -0.399715 3.23643 0.228564 1.85216 1.59507L2.55468 2.30673L3.25721 3.01839C4.20965 2.07816 5.48199 1.55308 7.5271 1.27951C9.60095 1.0021 12.3172 1 16.0722 1V0ZM16.0334 35V34C12.189 34 9.40679 33.9979 7.28766 33.7115C5.1973 33.4291 3.90484 32.8871 2.94781 31.9177L2.23616 32.6202L1.5245 33.3227C2.91673 34.7331 4.7069 35.381 7.01987 35.6935C9.30406 36.0021 12.2459 36 16.0334 36V35ZM0.0347796 18.7933L-0.965137 18.7804C-1.01406 22.5676 -1.05421 25.5092 -0.775115 27.7972C-0.492505 30.114 0.132264 31.9124 1.5245 33.3227L2.23616 32.6202L2.94781 31.9177C1.99079 30.9482 1.46558 29.6489 1.21017 27.555C0.951243 25.4324 0.985035 22.6504 1.0347 18.8062L0.0347796 18.7933ZM37.7883 34.162L37.4689 33.2144C36.1992 33.6423 35.6672 33.8185 35.1229 33.9077L35.2847 34.8946L35.4465 35.8814C36.1882 35.7598 36.8965 35.5179 38.1077 35.1097L37.7883 34.162ZM32.6783 35V36C33.9563 36 34.7048 36.003 35.4465 35.8814L35.2847 34.8946L35.1229 33.9077C34.5785 33.997 34.0181 34 32.6783 34V35ZM46.8271 32V31C45.549 31 44.8005 30.997 44.0588 31.1186L44.2206 32.1054L44.3825 33.0923C44.9268 33.003 45.4872 33 46.8271 33V32ZM41.717 32.838L42.0364 33.7856C43.3061 33.3577 43.8381 33.1815 44.3825 33.0923L44.2206 32.1054L44.0588 31.1186C43.3172 31.2402 42.6088 31.4821 41.3977 31.8903L41.717 32.838ZM173.444 16.2574L172.444 16.2414C172.384 19.985 172.338 22.6929 172.029 24.7565C171.723 26.7915 171.18 28.0528 170.228 28.9894L170.93 29.7022L171.631 30.415C173.014 29.0538 173.668 27.3084 174.007 25.0532C174.34 22.8268 174.385 19.9612 174.444 16.2735L173.444 16.2574ZM157.446 32V33C161.134 33 164 33.0021 166.232 32.704C168.492 32.402 170.248 31.7761 171.631 30.415L170.93 29.7022L170.228 28.9894C169.276 29.9261 168.006 30.4491 165.967 30.7216C163.898 30.9979 161.19 31 157.446 31V32ZM173.478 14.1521L174.478 14.1682C174.524 11.2889 174.565 9.60142 174.033 8.06232L173.088 8.38921L172.143 8.71609C172.533 9.84346 172.527 11.1091 172.478 14.136L173.478 14.1521ZM167.921 2.79533L167.32 3.59463C169.74 5.41386 170.743 6.1857 171.394 7.18545L172.232 6.63991L173.07 6.09436C172.182 4.7295 170.824 3.7265 168.522 1.99603L167.921 2.79533ZM173.088 8.38921L174.033 8.06232C173.793 7.36958 173.47 6.70869 173.07 6.09436L172.232 6.63991L171.394 7.18545C171.705 7.66326 171.957 8.17728 172.143 8.71609L173.088 8.38921Z" fill="#80FF80" fill-opacity="0.2" mask="url(#path-1-inside-1_368_858)"/>
<path d="M16.3584 24.6152H26.7422V26H16.3574V24.6152H14.9736V19.0771H16.3584V24.6152ZM21.874 8.0459L21.8672 9.41406L25.4795 9.43164L25.4736 10.8037L25.4795 10.8047L25.4736 12.1533H26.7432V15.6152H30.2031V17H28.127V24.6152H26.7422V21.1543H24.666V19.7695H26.7422V17H14.9727V19.0771H13.5879V17H12.2031V15.6152H17.0498V12.1533H18.0244L15.8096 12.1426L15.8154 10.7695H15.8096L15.8154 9.40137L12.2041 9.38477L12.2109 8L21.874 8.0459ZM21.2041 21.1543H24.665V22.5381H21.2031V21.1543H19.127V19.7695H21.2041V21.1543ZM21.2031 15.6152H25.3584V13.5381H21.2041V12.168H21.2031V15.6152Z" fill="#80FF80"/>
<path d="M39.0645 14.1094C38.7129 14.1094 38.4902 13.8984 38.4902 13.5703C38.4902 13.2422 38.7129 13.0312 39.0645 13.0312H42.4043C42.7559 13.0312 42.9785 13.2422 42.9785 13.5703C42.9785 13.8984 42.7559 14.1094 42.4043 14.1094H39.0645ZM39.0469 15.3281C38.7129 15.3281 38.4609 15.0762 38.4609 14.7422C38.4609 14.4082 38.7129 14.1562 39.0469 14.1562C39.3809 14.1562 39.6328 14.4082 39.6328 14.7422C39.6328 15.0762 39.3809 15.3281 39.0469 15.3281ZM43.2656 15.3281C42.9316 15.3281 42.6797 15.0762 42.6797 14.7422C42.6797 14.4082 42.9316 14.1562 43.2656 14.1562C43.5996 14.1562 43.8516 14.4082 43.8516 14.7422C43.8516 15.0762 43.5996 15.3281 43.2656 15.3281ZM39.0469 16.5C38.7129 16.5 38.4609 16.248 38.4609 15.9141C38.4609 15.5801 38.7129 15.3281 39.0469 15.3281C39.3809 15.3281 39.6328 15.5801 39.6328 15.9141C39.6328 16.248 39.3809 16.5 39.0469 16.5ZM43.2656 16.5C42.9316 16.5 42.6797 16.248 42.6797 15.9141C42.6797 15.5801 42.9316 15.3281 43.2656 15.3281C43.5996 15.3281 43.8516 15.5801 43.8516 15.9141C43.8516 16.248 43.5996 16.5 43.2656 16.5ZM39.0645 17.625C38.7129 17.625 38.4902 17.4141 38.4902 17.0859C38.4902 16.7578 38.7129 16.5469 39.0645 16.5469H42.4043C42.7559 16.5469 42.9785 16.7578 42.9785 17.0859C42.9785 17.4141 42.7559 17.625 42.4043 17.625H39.0645ZM39.0469 18.8438C38.7129 18.8438 38.4609 18.5918 38.4609 18.2578C38.4609 17.9238 38.7129 17.6719 39.0469 17.6719C39.3809 17.6719 39.6328 17.9238 39.6328 18.2578C39.6328 18.5918 39.3809 18.8438 39.0469 18.8438ZM41.5781 18.8438C41.2441 18.8438 40.9922 18.5918 40.9922 18.2578C40.9922 17.9238 41.2441 17.6719 41.5781 17.6719C41.9121 17.6719 42.1641 17.9238 42.1641 18.2578C42.1641 18.5918 41.9121 18.8438 41.5781 18.8438ZM39.0469 20.0156C38.7129 20.0156 38.4609 19.7637 38.4609 19.4297C38.4609 19.0957 38.7129 18.8438 39.0469 18.8438C39.3809 18.8438 39.6328 19.0957 39.6328 19.4297C39.6328 19.7637 39.3809 20.0156 39.0469 20.0156ZM42.4219 20.0156C42.0879 20.0156 41.8359 19.7637 41.8359 19.4297C41.8359 19.0957 42.0879 18.8438 42.4219 18.8438C42.7559 18.8438 43.0078 19.0957 43.0078 19.4297C43.0078 19.7637 42.7559 20.0156 42.4219 20.0156ZM39.0469 21.1875C38.7129 21.1875 38.4609 20.9355 38.4609 20.6016C38.4609 20.2676 38.7129 20.0156 39.0469 20.0156C39.3809 20.0156 39.6328 20.2676 39.6328 20.6016C39.6328 20.9355 39.3809 21.1875 39.0469 21.1875ZM43.2656 21.1875C42.9316 21.1875 42.6797 20.9355 42.6797 20.6016C42.6797 20.2676 42.9316 20.0156 43.2656 20.0156C43.5996 20.0156 43.8516 20.2676 43.8516 20.6016C43.8516 20.9355 43.5996 21.1875 43.2656 21.1875ZM47.6182 14.1094C47.2666 14.1094 47.044 13.8984 47.044 13.5703C47.044 13.2422 47.2666 13.0312 47.6182 13.0312H48.4268C48.7784 13.0312 49.001 13.2422 49.001 13.5703C49.001 13.8984 48.7784 14.1094 48.4268 14.1094H47.6182ZM46.7569 15.3281C46.4229 15.3281 46.1709 15.0762 46.1709 14.7422C46.1709 14.4082 46.4229 14.1562 46.7569 14.1562C47.0909 14.1562 47.3428 14.4082 47.3428 14.7422C47.3428 15.0762 47.0909 15.3281 46.7569 15.3281ZM49.2881 15.3281C48.9541 15.3281 48.7022 15.0762 48.7022 14.7422C48.7022 14.4082 48.9541 14.1562 49.2881 14.1562C49.6221 14.1562 49.8741 14.4082 49.8741 14.7422C49.8741 15.0762 49.6221 15.3281 49.2881 15.3281ZM45.9131 16.5C45.5791 16.5 45.3272 16.248 45.3272 15.9141C45.3272 15.5801 45.5791 15.3281 45.9131 15.3281C46.2471 15.3281 46.4991 15.5801 46.4991 15.9141C46.4991 16.248 46.2471 16.5 45.9131 16.5ZM50.1319 16.5C49.7979 16.5 49.5459 16.248 49.5459 15.9141C49.5459 15.5801 49.7979 15.3281 50.1319 15.3281C50.4659 15.3281 50.7178 15.5801 50.7178 15.9141C50.7178 16.248 50.4659 16.5 50.1319 16.5ZM45.9131 17.6719C45.5791 17.6719 45.3272 17.4199 45.3272 17.0859C45.3272 16.752 45.5791 16.5 45.9131 16.5C46.2471 16.5 46.4991 16.752 46.4991 17.0859C46.4991 17.4199 46.2471 17.6719 45.9131 17.6719ZM50.1319 17.6719C49.7979 17.6719 49.5459 17.4199 49.5459 17.0859C49.5459 16.752 49.7979 16.5 50.1319 16.5C50.4659 16.5 50.7178 16.752 50.7178 17.0859C50.7178 17.4199 50.4659 17.6719 50.1319 17.6719ZM45.9307 18.7969C45.5791 18.7969 45.3565 18.5859 45.3565 18.2578C45.3565 17.9297 45.5791 17.7188 45.9307 17.7188H50.1143C50.4659 17.7188 50.6885 17.9297 50.6885 18.2578C50.6885 18.5859 50.4659 18.7969 50.1143 18.7969H45.9307ZM45.9131 20.0156C45.5791 20.0156 45.3272 19.7637 45.3272 19.4297C45.3272 19.0957 45.5791 18.8438 45.9131 18.8438C46.2471 18.8438 46.4991 19.0957 46.4991 19.4297C46.4991 19.7637 46.2471 20.0156 45.9131 20.0156ZM50.1319 20.0156C49.7979 20.0156 49.5459 19.7637 49.5459 19.4297C49.5459 19.0957 49.7979 18.8438 50.1319 18.8438C50.4659 18.8438 50.7178 19.0957 50.7178 19.4297C50.7178 19.7637 50.4659 20.0156 50.1319 20.0156ZM45.9131 21.1875C45.5791 21.1875 45.3272 20.9355 45.3272 20.6016C45.3272 20.2676 45.5791 20.0156 45.9131 20.0156C46.2471 20.0156 46.4991 20.2676 46.4991 20.6016C46.4991 20.9355 46.2471 21.1875 45.9131 21.1875ZM50.1319 21.1875C49.7979 21.1875 49.5459 20.9355 49.5459 20.6016C49.5459 20.2676 49.7979 20.0156 50.1319 20.0156C50.4659 20.0156 50.7178 20.2676 50.7178 20.6016C50.7178 20.9355 50.4659 21.1875 50.1319 21.1875ZM51.9532 14.1094C51.6016 14.1094 51.379 13.8984 51.379 13.5703C51.379 13.2422 51.6016 13.0312 51.9532 13.0312H56.9805C57.3321 13.0312 57.5548 13.2422 57.5548 13.5703C57.5548 13.8984 57.3321 14.1094 56.9805 14.1094H51.9532ZM54.4669 15.3281C54.1329 15.3281 53.8809 15.0762 53.8809 14.7422C53.8809 14.4082 54.1329 14.1562 54.4669 14.1562C54.8009 14.1562 55.0528 14.4082 55.0528 14.7422C55.0528 15.0762 54.8009 15.3281 54.4669 15.3281ZM54.4669 16.5C54.1329 16.5 53.8809 16.248 53.8809 15.9141C53.8809 15.5801 54.1329 15.3281 54.4669 15.3281C54.8009 15.3281 55.0528 15.5801 55.0528 15.9141C55.0528 16.248 54.8009 16.5 54.4669 16.5ZM54.4669 17.6719C54.1329 17.6719 53.8809 17.4199 53.8809 17.0859C53.8809 16.752 54.1329 16.5 54.4669 16.5C54.8009 16.5 55.0528 16.752 55.0528 17.0859C55.0528 17.4199 54.8009 17.6719 54.4669 17.6719ZM54.4669 18.8438C54.1329 18.8438 53.8809 18.5918 53.8809 18.2578C53.8809 17.9238 54.1329 17.6719 54.4669 17.6719C54.8009 17.6719 55.0528 17.9238 55.0528 18.2578C55.0528 18.5918 54.8009 18.8438 54.4669 18.8438ZM54.4669 20.0156C54.1329 20.0156 53.8809 19.7637 53.8809 19.4297C53.8809 19.0957 54.1329 18.8438 54.4669 18.8438C54.8009 18.8438 55.0528 19.0957 55.0528 19.4297C55.0528 19.7637 54.8009 20.0156 54.4669 20.0156ZM54.4669 21.1875C54.1329 21.1875 53.8809 20.9355 53.8809 20.6016C53.8809 20.2676 54.1329 20.0156 54.4669 20.0156C54.8009 20.0156 55.0528 20.2676 55.0528 20.6016C55.0528 20.9355 54.8009 21.1875 54.4669 21.1875ZM59.6456 14.1562C59.3116 14.1562 59.0597 13.9043 59.0597 13.5703C59.0597 13.2363 59.3116 12.9844 59.6456 12.9844C59.9796 12.9844 60.2316 13.2363 60.2316 13.5703C60.2316 13.9043 59.9796 14.1562 59.6456 14.1562ZM64.7081 14.1562C64.3741 14.1562 64.1222 13.9043 64.1222 13.5703C64.1222 13.2363 64.3741 12.9844 64.7081 12.9844C65.0421 12.9844 65.2941 13.2363 65.2941 13.5703C65.2941 13.9043 65.0421 14.1562 64.7081 14.1562ZM59.6456 15.3281C59.3116 15.3281 59.0597 15.0762 59.0597 14.7422C59.0597 14.4082 59.3116 14.1562 59.6456 14.1562C59.9796 14.1562 60.2316 14.4082 60.2316 14.7422C60.2316 15.0762 59.9796 15.3281 59.6456 15.3281ZM64.7081 15.3281C64.3741 15.3281 64.1222 15.0762 64.1222 14.7422C64.1222 14.4082 64.3741 14.1562 64.7081 14.1562C65.0421 14.1562 65.2941 14.4082 65.2941 14.7422C65.2941 15.0762 65.0421 15.3281 64.7081 15.3281ZM59.6456 16.5C59.3116 16.5 59.0597 16.248 59.0597 15.9141C59.0597 15.5801 59.3116 15.3281 59.6456 15.3281C59.9796 15.3281 60.2316 15.5801 60.2316 15.9141C60.2316 16.248 59.9796 16.5 59.6456 16.5ZM64.7081 16.5C64.3741 16.5 64.1222 16.248 64.1222 15.9141C64.1222 15.5801 64.3741 15.3281 64.7081 15.3281C65.0421 15.3281 65.2941 15.5801 65.2941 15.9141C65.2941 16.248 65.0421 16.5 64.7081 16.5ZM59.6632 17.625C59.3116 17.625 59.089 17.4141 59.089 17.0859C59.089 16.7578 59.3116 16.5469 59.6632 16.5469H64.6905C65.0421 16.5469 65.2648 16.7578 65.2648 17.0859C65.2648 17.4141 65.0421 17.625 64.6905 17.625H59.6632ZM59.6456 18.8438C59.3116 18.8438 59.0597 18.5918 59.0597 18.2578C59.0597 17.9238 59.3116 17.6719 59.6456 17.6719C59.9796 17.6719 60.2316 17.9238 60.2316 18.2578C60.2316 18.5918 59.9796 18.8438 59.6456 18.8438ZM64.7081 18.8438C64.3741 18.8438 64.1222 18.5918 64.1222 18.2578C64.1222 17.9238 64.3741 17.6719 64.7081 17.6719C65.0421 17.6719 65.2941 17.9238 65.2941 18.2578C65.2941 18.5918 65.0421 18.8438 64.7081 18.8438ZM59.6456 20.0156C59.3116 20.0156 59.0597 19.7637 59.0597 19.4297C59.0597 19.0957 59.3116 18.8438 59.6456 18.8438C59.9796 18.8438 60.2316 19.0957 60.2316 19.4297C60.2316 19.7637 59.9796 20.0156 59.6456 20.0156ZM64.7081 20.0156C64.3741 20.0156 64.1222 19.7637 64.1222 19.4297C64.1222 19.0957 64.3741 18.8438 64.7081 18.8438C65.0421 18.8438 65.2941 19.0957 65.2941 19.4297C65.2941 19.7637 65.0421 20.0156 64.7081 20.0156ZM59.6456 21.1875C59.3116 21.1875 59.0597 20.9355 59.0597 20.6016C59.0597 20.2676 59.3116 20.0156 59.6456 20.0156C59.9796 20.0156 60.2316 20.2676 60.2316 20.6016C60.2316 20.9355 59.9796 21.1875 59.6456 21.1875ZM64.7081 21.1875C64.3741 21.1875 64.1222 20.9355 64.1222 20.6016C64.1222 20.2676 64.3741 20.0156 64.7081 20.0156C65.0421 20.0156 65.2941 20.2676 65.2941 20.6016C65.2941 20.9355 65.0421 21.1875 64.7081 21.1875ZM67.3732 14.1094C67.0216 14.1094 66.799 13.8984 66.799 13.5703C66.799 13.2422 67.0216 13.0312 67.3732 13.0312H71.5568C71.9084 13.0312 72.131 13.2422 72.131 13.5703C72.131 13.8984 71.9084 14.1094 71.5568 14.1094H67.3732ZM67.3556 15.3281C67.0216 15.3281 66.7697 15.0762 66.7697 14.7422C66.7697 14.4082 67.0216 14.1562 67.3556 14.1562C67.6896 14.1562 67.9416 14.4082 67.9416 14.7422C67.9416 15.0762 67.6896 15.3281 67.3556 15.3281ZM67.3556 16.5C67.0216 16.5 66.7697 16.248 66.7697 15.9141C66.7697 15.5801 67.0216 15.3281 67.3556 15.3281C67.6896 15.3281 67.9416 15.5801 67.9416 15.9141C67.9416 16.248 67.6896 16.5 67.3556 16.5ZM67.3732 17.625C67.0216 17.625 66.799 17.4141 66.799 17.0859C66.799 16.7578 67.0216 16.5469 67.3732 16.5469H70.713C71.0646 16.5469 71.2873 16.7578 71.2873 17.0859C71.2873 17.4141 71.0646 17.625 70.713 17.625H67.3732ZM67.3556 18.8438C67.0216 18.8438 66.7697 18.5918 66.7697 18.2578C66.7697 17.9238 67.0216 17.6719 67.3556 17.6719C67.6896 17.6719 67.9416 17.9238 67.9416 18.2578C67.9416 18.5918 67.6896 18.8438 67.3556 18.8438ZM67.3556 20.0156C67.0216 20.0156 66.7697 19.7637 66.7697 19.4297C66.7697 19.0957 67.0216 18.8438 67.3556 18.8438C67.6896 18.8438 67.9416 19.0957 67.9416 19.4297C67.9416 19.7637 67.6896 20.0156 67.3556 20.0156ZM67.3732 21.1406C67.0216 21.1406 66.799 20.9297 66.799 20.6016C66.799 20.2734 67.0216 20.0625 67.3732 20.0625H71.5568C71.9084 20.0625 72.131 20.2734 72.131 20.6016C72.131 20.9297 71.9084 21.1406 71.5568 21.1406H67.3732ZM74.2395 14.1094C73.8879 14.1094 73.6652 13.8984 73.6652 13.5703C73.6652 13.2422 73.8879 13.0312 74.2395 13.0312H77.5793C77.9309 13.0312 78.1535 13.2422 78.1535 13.5703C78.1535 13.8984 77.9309 14.1094 77.5793 14.1094H74.2395ZM74.2219 15.3281C73.8879 15.3281 73.6359 15.0762 73.6359 14.7422C73.6359 14.4082 73.8879 14.1562 74.2219 14.1562C74.5559 14.1562 74.8078 14.4082 74.8078 14.7422C74.8078 15.0762 74.5559 15.3281 74.2219 15.3281ZM78.4406 15.3281C78.1066 15.3281 77.8547 15.0762 77.8547 14.7422C77.8547 14.4082 78.1066 14.1562 78.4406 14.1562C78.7746 14.1562 79.0266 14.4082 79.0266 14.7422C79.0266 15.0762 78.7746 15.3281 78.4406 15.3281ZM74.2219 16.5C73.8879 16.5 73.6359 16.248 73.6359 15.9141C73.6359 15.5801 73.8879 15.3281 74.2219 15.3281C74.5559 15.3281 74.8078 15.5801 74.8078 15.9141C74.8078 16.248 74.5559 16.5 74.2219 16.5ZM78.4406 16.5C78.1066 16.5 77.8547 16.248 77.8547 15.9141C77.8547 15.5801 78.1066 15.3281 78.4406 15.3281C78.7746 15.3281 79.0266 15.5801 79.0266 15.9141C79.0266 16.248 78.7746 16.5 78.4406 16.5ZM74.2395 17.625C73.8879 17.625 73.6652 17.4141 73.6652 17.0859C73.6652 16.7578 73.8879 16.5469 74.2395 16.5469H77.5793C77.9309 16.5469 78.1535 16.7578 78.1535 17.0859C78.1535 17.4141 77.9309 17.625 77.5793 17.625H74.2395ZM74.2219 18.8438C73.8879 18.8438 73.6359 18.5918 73.6359 18.2578C73.6359 17.9238 73.8879 17.6719 74.2219 17.6719C74.5559 17.6719 74.8078 17.9238 74.8078 18.2578C74.8078 18.5918 74.5559 18.8438 74.2219 18.8438ZM76.7531 18.8438C76.4191 18.8438 76.1672 18.5918 76.1672 18.2578C76.1672 17.9238 76.4191 17.6719 76.7531 17.6719C77.0871 17.6719 77.3391 17.9238 77.3391 18.2578C77.3391 18.5918 77.0871 18.8438 76.7531 18.8438ZM74.2219 20.0156C73.8879 20.0156 73.6359 19.7637 73.6359 19.4297C73.6359 19.0957 73.8879 18.8438 74.2219 18.8438C74.5559 18.8438 74.8078 19.0957 74.8078 19.4297C74.8078 19.7637 74.5559 20.0156 74.2219 20.0156ZM77.5969 20.0156C77.2629 20.0156 77.0109 19.7637 77.0109 19.4297C77.0109 19.0957 77.2629 18.8438 77.5969 18.8438C77.9309 18.8438 78.1828 19.0957 78.1828 19.4297C78.1828 19.7637 77.9309 20.0156 77.5969 20.0156ZM74.2219 21.1875C73.8879 21.1875 73.6359 20.9355 73.6359 20.6016C73.6359 20.2676 73.8879 20.0156 74.2219 20.0156C74.5559 20.0156 74.8078 20.2676 74.8078 20.6016C74.8078 20.9355 74.5559 21.1875 74.2219 21.1875ZM78.4406 21.1875C78.1066 21.1875 77.8547 20.9355 77.8547 20.6016C77.8547 20.2676 78.1066 20.0156 78.4406 20.0156C78.7746 20.0156 79.0266 20.2676 79.0266 20.6016C79.0266 20.9355 78.7746 21.1875 78.4406 21.1875ZM84.597 14.1094C84.2454 14.1094 84.0227 13.8984 84.0227 13.5703C84.0227 13.2422 84.2454 13.0312 84.597 13.0312H87.9368C88.2884 13.0312 88.511 13.2422 88.511 13.5703C88.511 13.8984 88.2884 14.1094 87.9368 14.1094H84.597ZM84.5794 15.3281C84.2454 15.3281 83.9934 15.0762 83.9934 14.7422C83.9934 14.4082 84.2454 14.1562 84.5794 14.1562C84.9134 14.1562 85.1653 14.4082 85.1653 14.7422C85.1653 15.0762 84.9134 15.3281 84.5794 15.3281ZM88.7981 15.3281C88.4641 15.3281 88.2122 15.0762 88.2122 14.7422C88.2122 14.4082 88.4641 14.1562 88.7981 14.1562C89.1321 14.1562 89.3841 14.4082 89.3841 14.7422C89.3841 15.0762 89.1321 15.3281 88.7981 15.3281ZM84.5794 16.5C84.2454 16.5 83.9934 16.248 83.9934 15.9141C83.9934 15.5801 84.2454 15.3281 84.5794 15.3281C84.9134 15.3281 85.1653 15.5801 85.1653 15.9141C85.1653 16.248 84.9134 16.5 84.5794 16.5ZM88.7981 16.5C88.4641 16.5 88.2122 16.248 88.2122 15.9141C88.2122 15.5801 88.4641 15.3281 88.7981 15.3281C89.1321 15.3281 89.3841 15.5801 89.3841 15.9141C89.3841 16.248 89.1321 16.5 88.7981 16.5ZM84.597 17.625C84.2454 17.625 84.0227 17.4141 84.0227 17.0859C84.0227 16.7578 84.2454 16.5469 84.597 16.5469H87.9368C88.2884 16.5469 88.511 16.7578 88.511 17.0859C88.511 17.4141 88.2884 17.625 87.9368 17.625H84.597ZM84.5794 18.8438C84.2454 18.8438 83.9934 18.5918 83.9934 18.2578C83.9934 17.9238 84.2454 17.6719 84.5794 17.6719C84.9134 17.6719 85.1653 17.9238 85.1653 18.2578C85.1653 18.5918 84.9134 18.8438 84.5794 18.8438ZM88.7981 18.8438C88.4641 18.8438 88.2122 18.5918 88.2122 18.2578C88.2122 17.9238 88.4641 17.6719 88.7981 17.6719C89.1321 17.6719 89.3841 17.9238 89.3841 18.2578C89.3841 18.5918 89.1321 18.8438 88.7981 18.8438ZM84.5794 20.0156C84.2454 20.0156 83.9934 19.7637 83.9934 19.4297C83.9934 19.0957 84.2454 18.8438 84.5794 18.8438C84.9134 18.8438 85.1653 19.0957 85.1653 19.4297C85.1653 19.7637 84.9134 20.0156 84.5794 20.0156ZM88.7981 20.0156C88.4641 20.0156 88.2122 19.7637 88.2122 19.4297C88.2122 19.0957 88.4641 18.8438 88.7981 18.8438C89.1321 18.8438 89.3841 19.0957 89.3841 19.4297C89.3841 19.7637 89.1321 20.0156 88.7981 20.0156ZM84.597 21.1406C84.2454 21.1406 84.0227 20.9297 84.0227 20.6016C84.0227 20.2734 84.2454 20.0625 84.597 20.0625H87.9368C88.2884 20.0625 88.511 20.2734 88.511 20.6016C88.511 20.9297 88.2884 21.1406 87.9368 21.1406H84.597ZM93.1507 14.1094C92.7991 14.1094 92.5765 13.8984 92.5765 13.5703C92.5765 13.2422 92.7991 13.0312 93.1507 13.0312H95.6468C95.9984 13.0312 96.221 13.2422 96.221 13.5703C96.221 13.8984 95.9984 14.1094 95.6468 14.1094H93.1507ZM92.2894 15.3281C91.9554 15.3281 91.7034 15.0762 91.7034 14.7422C91.7034 14.4082 91.9554 14.1562 92.2894 14.1562C92.6234 14.1562 92.8753 14.4082 92.8753 14.7422C92.8753 15.0762 92.6234 15.3281 92.2894 15.3281ZM96.5081 15.3281C96.1741 15.3281 95.9222 15.0762 95.9222 14.7422C95.9222 14.4082 96.1741 14.1562 96.5081 14.1562C96.8421 14.1562 97.0941 14.4082 97.0941 14.7422C97.0941 15.0762 96.8421 15.3281 96.5081 15.3281ZM91.4456 16.5C91.1116 16.5 90.8597 16.248 90.8597 15.9141C90.8597 15.5801 91.1116 15.3281 91.4456 15.3281C91.7796 15.3281 92.0316 15.5801 92.0316 15.9141C92.0316 16.248 91.7796 16.5 91.4456 16.5ZM97.3519 16.5C97.0179 16.5 96.7659 16.248 96.7659 15.9141C96.7659 15.5801 97.0179 15.3281 97.3519 15.3281C97.6859 15.3281 97.9378 15.5801 97.9378 15.9141C97.9378 16.248 97.6859 16.5 97.3519 16.5ZM91.4456 17.6719C91.1116 17.6719 90.8597 17.4199 90.8597 17.0859C90.8597 16.752 91.1116 16.5 91.4456 16.5C91.7796 16.5 92.0316 16.752 92.0316 17.0859C92.0316 17.4199 91.7796 17.6719 91.4456 17.6719ZM97.3519 17.6719C97.0179 17.6719 96.7659 17.4199 96.7659 17.0859C96.7659 16.752 97.0179 16.5 97.3519 16.5C97.6859 16.5 97.9378 16.752 97.9378 17.0859C97.9378 17.4199 97.6859 17.6719 97.3519 17.6719ZM91.4456 18.8438C91.1116 18.8438 90.8597 18.5918 90.8597 18.2578C90.8597 17.9238 91.1116 17.6719 91.4456 17.6719C91.7796 17.6719 92.0316 17.9238 92.0316 18.2578C92.0316 18.5918 91.7796 18.8438 91.4456 18.8438ZM97.3519 18.8438C97.0179 18.8438 96.7659 18.5918 96.7659 18.2578C96.7659 17.9238 97.0179 17.6719 97.3519 17.6719C97.6859 17.6719 97.9378 17.9238 97.9378 18.2578C97.9378 18.5918 97.6859 18.8438 97.3519 18.8438ZM92.2894 20.0156C91.9554 20.0156 91.7034 19.7637 91.7034 19.4297C91.7034 19.0957 91.9554 18.8438 92.2894 18.8438C92.6234 18.8438 92.8753 19.0957 92.8753 19.4297C92.8753 19.7637 92.6234 20.0156 92.2894 20.0156ZM96.5081 20.0156C96.1741 20.0156 95.9222 19.7637 95.9222 19.4297C95.9222 19.0957 96.1741 18.8438 96.5081 18.8438C96.8421 18.8438 97.0941 19.0957 97.0941 19.4297C97.0941 19.7637 96.8421 20.0156 96.5081 20.0156ZM93.1507 21.1406C92.7991 21.1406 92.5765 20.9297 92.5765 20.6016C92.5765 20.2734 92.7991 20.0625 93.1507 20.0625H95.6468C95.9984 20.0625 96.221 20.2734 96.221 20.6016C96.221 20.9297 95.9984 21.1406 95.6468 21.1406H93.1507ZM101.704 14.1094C101.353 14.1094 101.13 13.8984 101.13 13.5703C101.13 13.2422 101.353 13.0312 101.704 13.0312H104.201C104.552 13.0312 104.775 13.2422 104.775 13.5703C104.775 13.8984 104.552 14.1094 104.201 14.1094H101.704ZM100.843 15.3281C100.509 15.3281 100.257 15.0762 100.257 14.7422C100.257 14.4082 100.509 14.1562 100.843 14.1562C101.177 14.1562 101.429 14.4082 101.429 14.7422C101.429 15.0762 101.177 15.3281 100.843 15.3281ZM105.062 15.3281C104.728 15.3281 104.476 15.0762 104.476 14.7422C104.476 14.4082 104.728 14.1562 105.062 14.1562C105.396 14.1562 105.648 14.4082 105.648 14.7422C105.648 15.0762 105.396 15.3281 105.062 15.3281ZM99.9994 16.5C99.6654 16.5 99.4134 16.248 99.4134 15.9141C99.4134 15.5801 99.6654 15.3281 99.9994 15.3281C100.333 15.3281 100.585 15.5801 100.585 15.9141C100.585 16.248 100.333 16.5 99.9994 16.5ZM105.906 16.5C105.572 16.5 105.32 16.248 105.32 15.9141C105.32 15.5801 105.572 15.3281 105.906 15.3281C106.24 15.3281 106.492 15.5801 106.492 15.9141C106.492 16.248 106.24 16.5 105.906 16.5ZM99.9994 17.6719C99.6654 17.6719 99.4134 17.4199 99.4134 17.0859C99.4134 16.752 99.6654 16.5 99.9994 16.5C100.333 16.5 100.585 16.752 100.585 17.0859C100.585 17.4199 100.333 17.6719 99.9994 17.6719ZM105.906 17.6719C105.572 17.6719 105.32 17.4199 105.32 17.0859C105.32 16.752 105.572 16.5 105.906 16.5C106.24 16.5 106.492 16.752 106.492 17.0859C106.492 17.4199 106.24 17.6719 105.906 17.6719ZM99.9994 18.8438C99.6654 18.8438 99.4134 18.5918 99.4134 18.2578C99.4134 17.9238 99.6654 17.6719 99.9994 17.6719C100.333 17.6719 100.585 17.9238 100.585 18.2578C100.585 18.5918 100.333 18.8438 99.9994 18.8438ZM105.906 18.8438C105.572 18.8438 105.32 18.5918 105.32 18.2578C105.32 17.9238 105.572 17.6719 105.906 17.6719C106.24 17.6719 106.492 17.9238 106.492 18.2578C106.492 18.5918 106.24 18.8438 105.906 18.8438ZM100.843 20.0156C100.509 20.0156 100.257 19.7637 100.257 19.4297C100.257 19.0957 100.509 18.8438 100.843 18.8438C101.177 18.8438 101.429 19.0957 101.429 19.4297C101.429 19.7637 101.177 20.0156 100.843 20.0156ZM105.062 20.0156C104.728 20.0156 104.476 19.7637 104.476 19.4297C104.476 19.0957 104.728 18.8438 105.062 18.8438C105.396 18.8438 105.648 19.0957 105.648 19.4297C105.648 19.7637 105.396 20.0156 105.062 20.0156ZM101.704 21.1406C101.353 21.1406 101.13 20.9297 101.13 20.6016C101.13 20.2734 101.353 20.0625 101.704 20.0625H104.201C104.552 20.0625 104.775 20.2734 104.775 20.6016C104.775 20.9297 104.552 21.1406 104.201 21.1406H101.704ZM108.553 14.1562C108.219 14.1562 107.967 13.9043 107.967 13.5703C107.967 13.2363 108.219 12.9844 108.553 12.9844C108.887 12.9844 109.139 13.2363 109.139 13.5703C109.139 13.9043 108.887 14.1562 108.553 14.1562ZM113.616 14.1562C113.282 14.1562 113.03 13.9043 113.03 13.5703C113.03 13.2363 113.282 12.9844 113.616 12.9844C113.95 12.9844 114.202 13.2363 114.202 13.5703C114.202 13.9043 113.95 14.1562 113.616 14.1562ZM108.553 15.3281C108.219 15.3281 107.967 15.0762 107.967 14.7422C107.967 14.4082 108.219 14.1562 108.553 14.1562C108.887 14.1562 109.139 14.4082 109.139 14.7422C109.139 15.0762 108.887 15.3281 108.553 15.3281ZM112.772 15.3281C112.438 15.3281 112.186 15.0762 112.186 14.7422C112.186 14.4082 112.438 14.1562 112.772 14.1562C113.106 14.1562 113.358 14.4082 113.358 14.7422C113.358 15.0762 113.106 15.3281 112.772 15.3281ZM108.553 16.5C108.219 16.5 107.967 16.248 107.967 15.9141C107.967 15.5801 108.219 15.3281 108.553 15.3281C108.887 15.3281 109.139 15.5801 109.139 15.9141C109.139 16.248 108.887 16.5 108.553 16.5ZM111.928 16.5C111.594 16.5 111.342 16.248 111.342 15.9141C111.342 15.5801 111.594 15.3281 111.928 15.3281C112.262 15.3281 112.514 15.5801 112.514 15.9141C112.514 16.248 112.262 16.5 111.928 16.5ZM108.571 17.625C108.219 17.625 107.996 17.4141 107.996 17.0859C107.996 16.7578 108.219 16.5469 108.571 16.5469H111.067C111.418 16.5469 111.641 16.7578 111.641 17.0859C111.641 17.4141 111.418 17.625 111.067 17.625H108.571ZM108.553 18.8438C108.219 18.8438 107.967 18.5918 107.967 18.2578C107.967 17.9238 108.219 17.6719 108.553 17.6719C108.887 17.6719 109.139 17.9238 109.139 18.2578C109.139 18.5918 108.887 18.8438 108.553 18.8438ZM111.928 18.8438C111.594 18.8438 111.342 18.5918 111.342 18.2578C111.342 17.9238 111.594 17.6719 111.928 17.6719C112.262 17.6719 112.514 17.9238 112.514 18.2578C112.514 18.5918 112.262 18.8438 111.928 18.8438ZM108.553 20.0156C108.219 20.0156 107.967 19.7637 107.967 19.4297C107.967 19.0957 108.219 18.8438 108.553 18.8438C108.887 18.8438 109.139 19.0957 109.139 19.4297C109.139 19.7637 108.887 20.0156 108.553 20.0156ZM112.772 20.0156C112.438 20.0156 112.186 19.7637 112.186 19.4297C112.186 19.0957 112.438 18.8438 112.772 18.8438C113.106 18.8438 113.358 19.0957 113.358 19.4297C113.358 19.7637 113.106 20.0156 112.772 20.0156ZM108.553 21.1875C108.219 21.1875 107.967 20.9355 107.967 20.6016C107.967 20.2676 108.219 20.0156 108.553 20.0156C108.887 20.0156 109.139 20.2676 109.139 20.6016C109.139 20.9355 108.887 21.1875 108.553 21.1875ZM113.616 21.1875C113.282 21.1875 113.03 20.9355 113.03 20.6016C113.03 20.2676 113.282 20.0156 113.616 20.0156C113.95 20.0156 114.202 20.2676 114.202 20.6016C114.202 20.9355 113.95 21.1875 113.616 21.1875ZM121.459 14.1094C121.108 14.1094 120.885 13.8984 120.885 13.5703C120.885 13.2422 121.108 13.0312 121.459 13.0312H122.268C122.62 13.0312 122.842 13.2422 122.842 13.5703C122.842 13.8984 122.62 14.1094 122.268 14.1094H121.459ZM120.598 15.3281C120.264 15.3281 120.012 15.0762 120.012 14.7422C120.012 14.4082 120.264 14.1562 120.598 14.1562C120.932 14.1562 121.184 14.4082 121.184 14.7422C121.184 15.0762 120.932 15.3281 120.598 15.3281ZM123.129 15.3281C122.795 15.3281 122.543 15.0762 122.543 14.7422C122.543 14.4082 122.795 14.1562 123.129 14.1562C123.463 14.1562 123.715 14.4082 123.715 14.7422C123.715 15.0762 123.463 15.3281 123.129 15.3281ZM119.754 16.5C119.42 16.5 119.168 16.248 119.168 15.9141C119.168 15.5801 119.42 15.3281 119.754 15.3281C120.088 15.3281 120.34 15.5801 120.34 15.9141C120.34 16.248 120.088 16.5 119.754 16.5ZM123.973 16.5C123.639 16.5 123.387 16.248 123.387 15.9141C123.387 15.5801 123.639 15.3281 123.973 15.3281C124.307 15.3281 124.559 15.5801 124.559 15.9141C124.559 16.248 124.307 16.5 123.973 16.5ZM119.754 17.6719C119.42 17.6719 119.168 17.4199 119.168 17.0859C119.168 16.752 119.42 16.5 119.754 16.5C120.088 16.5 120.34 16.752 120.34 17.0859C120.34 17.4199 120.088 17.6719 119.754 17.6719ZM123.973 17.6719C123.639 17.6719 123.387 17.4199 123.387 17.0859C123.387 16.752 123.639 16.5 123.973 16.5C124.307 16.5 124.559 16.752 124.559 17.0859C124.559 17.4199 124.307 17.6719 123.973 17.6719ZM119.772 18.7969C119.42 18.7969 119.198 18.5859 119.198 18.2578C119.198 17.9297 119.42 17.7188 119.772 17.7188H123.956C124.307 17.7188 124.53 17.9297 124.53 18.2578C124.53 18.5859 124.307 18.7969 123.956 18.7969H119.772ZM119.754 20.0156C119.42 20.0156 119.168 19.7637 119.168 19.4297C119.168 19.0957 119.42 18.8438 119.754 18.8438C120.088 18.8438 120.34 19.0957 120.34 19.4297C120.34 19.7637 120.088 20.0156 119.754 20.0156ZM123.973 20.0156C123.639 20.0156 123.387 19.7637 123.387 19.4297C123.387 19.0957 123.639 18.8438 123.973 18.8438C124.307 18.8438 124.559 19.0957 124.559 19.4297C124.559 19.7637 124.307 20.0156 123.973 20.0156ZM119.754 21.1875C119.42 21.1875 119.168 20.9355 119.168 20.6016C119.168 20.2676 119.42 20.0156 119.754 20.0156C120.088 20.0156 120.34 20.2676 120.34 20.6016C120.34 20.9355 120.088 21.1875 119.754 21.1875ZM123.973 21.1875C123.639 21.1875 123.387 20.9355 123.387 20.6016C123.387 20.2676 123.639 20.0156 123.973 20.0156C124.307 20.0156 124.559 20.2676 124.559 20.6016C124.559 20.9355 124.307 21.1875 123.973 21.1875ZM131.817 14.1094C131.465 14.1094 131.243 13.8984 131.243 13.5703C131.243 13.2422 131.465 13.0312 131.817 13.0312H134.313C134.665 13.0312 134.887 13.2422 134.887 13.5703C134.887 13.8984 134.665 14.1094 134.313 14.1094H131.817ZM130.956 15.3281C130.622 15.3281 130.37 15.0762 130.37 14.7422C130.37 14.4082 130.622 14.1562 130.956 14.1562C131.29 14.1562 131.542 14.4082 131.542 14.7422C131.542 15.0762 131.29 15.3281 130.956 15.3281ZM135.174 15.3281C134.84 15.3281 134.588 15.0762 134.588 14.7422C134.588 14.4082 134.84 14.1562 135.174 14.1562C135.508 14.1562 135.76 14.4082 135.76 14.7422C135.76 15.0762 135.508 15.3281 135.174 15.3281ZM130.112 16.5C129.778 16.5 129.526 16.248 129.526 15.9141C129.526 15.5801 129.778 15.3281 130.112 15.3281C130.446 15.3281 130.698 15.5801 130.698 15.9141C130.698 16.248 130.446 16.5 130.112 16.5ZM130.112 17.6719C129.778 17.6719 129.526 17.4199 129.526 17.0859C129.526 16.752 129.778 16.5 130.112 16.5C130.446 16.5 130.698 16.752 130.698 17.0859C130.698 17.4199 130.446 17.6719 130.112 17.6719ZM130.112 18.8438C129.778 18.8438 129.526 18.5918 129.526 18.2578C129.526 17.9238 129.778 17.6719 130.112 17.6719C130.446 17.6719 130.698 17.9238 130.698 18.2578C130.698 18.5918 130.446 18.8438 130.112 18.8438ZM130.956 20.0156C130.622 20.0156 130.37 19.7637 130.37 19.4297C130.37 19.0957 130.622 18.8438 130.956 18.8438C131.29 18.8438 131.542 19.0957 131.542 19.4297C131.542 19.7637 131.29 20.0156 130.956 20.0156ZM135.174 20.0156C134.84 20.0156 134.588 19.7637 134.588 19.4297C134.588 19.0957 134.84 18.8438 135.174 18.8438C135.508 18.8438 135.76 19.0957 135.76 19.4297C135.76 19.7637 135.508 20.0156 135.174 20.0156ZM131.817 21.1406C131.465 21.1406 131.243 20.9297 131.243 20.6016C131.243 20.2734 131.465 20.0625 131.817 20.0625H134.313C134.665 20.0625 134.887 20.2734 134.887 20.6016C134.887 20.9297 134.665 21.1406 134.313 21.1406H131.817ZM139.527 14.1094C139.175 14.1094 138.953 13.8984 138.953 13.5703C138.953 13.2422 139.175 13.0312 139.527 13.0312H140.336C140.687 13.0312 140.91 13.2422 140.91 13.5703C140.91 13.8984 140.687 14.1094 140.336 14.1094H139.527ZM138.666 15.3281C138.332 15.3281 138.08 15.0762 138.08 14.7422C138.08 14.4082 138.332 14.1562 138.666 14.1562C139 14.1562 139.252 14.4082 139.252 14.7422C139.252 15.0762 139 15.3281 138.666 15.3281ZM141.197 15.3281C140.863 15.3281 140.611 15.0762 140.611 14.7422C140.611 14.4082 140.863 14.1562 141.197 14.1562C141.531 14.1562 141.783 14.4082 141.783 14.7422C141.783 15.0762 141.531 15.3281 141.197 15.3281ZM137.822 16.5C137.488 16.5 137.236 16.248 137.236 15.9141C137.236 15.5801 137.488 15.3281 137.822 15.3281C138.156 15.3281 138.408 15.5801 138.408 15.9141C138.408 16.248 138.156 16.5 137.822 16.5ZM142.041 16.5C141.707 16.5 141.455 16.248 141.455 15.9141C141.455 15.5801 141.707 15.3281 142.041 15.3281C142.375 15.3281 142.627 15.5801 142.627 15.9141C142.627 16.248 142.375 16.5 142.041 16.5ZM137.822 17.6719C137.488 17.6719 137.236 17.4199 137.236 17.0859C137.236 16.752 137.488 16.5 137.822 16.5C138.156 16.5 138.408 16.752 138.408 17.0859C138.408 17.4199 138.156 17.6719 137.822 17.6719ZM142.041 17.6719C141.707 17.6719 141.455 17.4199 141.455 17.0859C141.455 16.752 141.707 16.5 142.041 16.5C142.375 16.5 142.627 16.752 142.627 17.0859C142.627 17.4199 142.375 17.6719 142.041 17.6719ZM137.839 18.7969C137.488 18.7969 137.265 18.5859 137.265 18.2578C137.265 17.9297 137.488 17.7188 137.839 17.7188H142.023C142.375 17.7188 142.597 17.9297 142.597 18.2578C142.597 18.5859 142.375 18.7969 142.023 18.7969H137.839ZM137.822 20.0156C137.488 20.0156 137.236 19.7637 137.236 19.4297C137.236 19.0957 137.488 18.8438 137.822 18.8438C138.156 18.8438 138.408 19.0957 138.408 19.4297C138.408 19.7637 138.156 20.0156 137.822 20.0156ZM142.041 20.0156C141.707 20.0156 141.455 19.7637 141.455 19.4297C141.455 19.0957 141.707 18.8438 142.041 18.8438C142.375 18.8438 142.627 19.0957 142.627 19.4297C142.627 19.7637 142.375 20.0156 142.041 20.0156ZM137.822 21.1875C137.488 21.1875 137.236 20.9355 137.236 20.6016C137.236 20.2676 137.488 20.0156 137.822 20.0156C138.156 20.0156 138.408 20.2676 138.408 20.6016C138.408 20.9355 138.156 21.1875 137.822 21.1875ZM142.041 21.1875C141.707 21.1875 141.455 20.9355 141.455 20.6016C141.455 20.2676 141.707 20.0156 142.041 20.0156C142.375 20.0156 142.627 20.2676 142.627 20.6016C142.627 20.9355 142.375 21.1875 142.041 21.1875ZM144.688 14.1562C144.354 14.1562 144.102 13.9043 144.102 13.5703C144.102 13.2363 144.354 12.9844 144.688 12.9844C145.022 12.9844 145.274 13.2363 145.274 13.5703C145.274 13.9043 145.022 14.1562 144.688 14.1562ZM144.688 15.3281C144.354 15.3281 144.102 15.0762 144.102 14.7422C144.102 14.4082 144.354 14.1562 144.688 14.1562C145.022 14.1562 145.274 14.4082 145.274 14.7422C145.274 15.0762 145.022 15.3281 144.688 15.3281ZM144.688 16.5C144.354 16.5 144.102 16.248 144.102 15.9141C144.102 15.5801 144.354 15.3281 144.688 15.3281C145.022 15.3281 145.274 15.5801 145.274 15.9141C145.274 16.248 145.022 16.5 144.688 16.5ZM144.688 17.6719C144.354 17.6719 144.102 17.4199 144.102 17.0859C144.102 16.752 144.354 16.5 144.688 16.5C145.022 16.5 145.274 16.752 145.274 17.0859C145.274 17.4199 145.022 17.6719 144.688 17.6719ZM144.688 18.8438C144.354 18.8438 144.102 18.5918 144.102 18.2578C144.102 17.9238 144.354 17.6719 144.688 17.6719C145.022 17.6719 145.274 17.9238 145.274 18.2578C145.274 18.5918 145.022 18.8438 144.688 18.8438ZM144.688 20.0156C144.354 20.0156 144.102 19.7637 144.102 19.4297C144.102 19.0957 144.354 18.8438 144.688 18.8438C145.022 18.8438 145.274 19.0957 145.274 19.4297C145.274 19.7637 145.022 20.0156 144.688 20.0156ZM144.706 21.1406C144.354 21.1406 144.131 20.9297 144.131 20.6016C144.131 20.2734 144.354 20.0625 144.706 20.0625H148.046C148.397 20.0625 148.62 20.2734 148.62 20.6016C148.62 20.9297 148.397 21.1406 148.046 21.1406H144.706ZM150.711 14.1562C150.377 14.1562 150.125 13.9043 150.125 13.5703C150.125 13.2363 150.377 12.9844 150.711 12.9844C151.045 12.9844 151.297 13.2363 151.297 13.5703C151.297 13.9043 151.045 14.1562 150.711 14.1562ZM150.711 15.3281C150.377 15.3281 150.125 15.0762 150.125 14.7422C150.125 14.4082 150.377 14.1562 150.711 14.1562C151.045 14.1562 151.297 14.4082 151.297 14.7422C151.297 15.0762 151.045 15.3281 150.711 15.3281ZM150.711 16.5C150.377 16.5 150.125 16.248 150.125 15.9141C150.125 15.5801 150.377 15.3281 150.711 15.3281C151.045 15.3281 151.297 15.5801 151.297 15.9141C151.297 16.248 151.045 16.5 150.711 16.5ZM150.711 17.6719C150.377 17.6719 150.125 17.4199 150.125 17.0859C150.125 16.752 150.377 16.5 150.711 16.5C151.045 16.5 151.297 16.752 151.297 17.0859C151.297 17.4199 151.045 17.6719 150.711 17.6719ZM150.711 18.8438C150.377 18.8438 150.125 18.5918 150.125 18.2578C150.125 17.9238 150.377 17.6719 150.711 17.6719C151.045 17.6719 151.297 17.9238 151.297 18.2578C151.297 18.5918 151.045 18.8438 150.711 18.8438ZM150.711 20.0156C150.377 20.0156 150.125 19.7637 150.125 19.4297C150.125 19.0957 150.377 18.8438 150.711 18.8438C151.045 18.8438 151.297 19.0957 151.297 19.4297C151.297 19.7637 151.045 20.0156 150.711 20.0156ZM150.728 21.1406C150.377 21.1406 150.154 20.9297 150.154 20.6016C150.154 20.2734 150.377 20.0625 150.728 20.0625H154.068C154.42 20.0625 154.642 20.2734 154.642 20.6016C154.642 20.9297 154.42 21.1406 154.068 21.1406H150.728ZM156.751 14.1094C156.399 14.1094 156.176 13.8984 156.176 13.5703C156.176 13.2422 156.399 13.0312 156.751 13.0312H159.247C159.598 13.0312 159.821 13.2422 159.821 13.5703C159.821 13.8984 159.598 14.1094 159.247 14.1094H156.751ZM160.108 15.3281C159.774 15.3281 159.522 15.0762 159.522 14.7422C159.522 14.4082 159.774 14.1562 160.108 14.1562C160.442 14.1562 160.694 14.4082 160.694 14.7422C160.694 15.0762 160.442 15.3281 160.108 15.3281ZM155.889 15.3281C155.555 15.3281 155.303 15.0762 155.303 14.7422C155.303 14.4082 155.555 14.1562 155.889 14.1562C156.223 14.1562 156.475 14.4082 156.475 14.7422C156.475 15.0762 156.223 15.3281 155.889 15.3281ZM158.438 16.4531C158.087 16.4531 157.864 16.2422 157.864 15.9141C157.864 15.5859 158.087 15.375 158.438 15.375H159.247C159.598 15.375 159.821 15.5859 159.821 15.9141C159.821 16.2422 159.598 16.4531 159.247 16.4531H158.438ZM157.577 17.6719C157.243 17.6719 156.991 17.4199 156.991 17.0859C156.991 16.752 157.243 16.5 157.577 16.5C157.911 16.5 158.163 16.752 158.163 17.0859C158.163 17.4199 157.911 17.6719 157.577 17.6719ZM156.751 19.9688C156.399 19.9688 156.176 19.7578 156.176 19.4297C156.176 19.1016 156.399 18.8906 156.751 18.8906H157.559C157.911 18.8906 158.134 19.1016 158.134 19.4297C158.134 19.7578 157.911 19.9688 157.559 19.9688H156.751ZM156.751 21.1406C156.399 21.1406 156.176 20.9297 156.176 20.6016C156.176 20.2734 156.399 20.0625 156.751 20.0625H157.559C157.911 20.0625 158.134 20.2734 158.134 20.6016C158.134 20.9297 157.911 21.1406 157.559 21.1406H156.751Z" fill="#80FF80" fill-opacity="0.8"/>
<defs>
<linearGradient id="paint0_linear_368_858" x1="-3.7036e-08" y1="1.67787" x2="173.724" y2="1.67787" gradientUnits="userSpaceOnUse">
<stop stop-color="#80FF80" stop-opacity="0.2"/>
<stop offset="1" stop-color="#80FF80"/>
</linearGradient>
</defs>
</svg>
