<svg width="29" height="54" viewBox="0 0 29 54" fill="none" xmlns="http://www.w3.org/2000/svg">
<path opacity="0.7" d="M15.4308 54H12.8564V46.2924H2.55872V41.1593H0V36.0105H2.55872V38.5849H5.13314V41.1593H7.70756V43.7337H12.8564V27.0157H10.282V24.4413H5.13314V21.8669H2.55872V19.2924H0V10.2977H2.55872V7.72326H5.13314V5.14884H12.8564V0H15.4308V5.14884H23.1384V7.72326H25.7128V12.8721H23.1384V10.2977H20.564V7.72326H15.4308V21.8669H17.9895V24.4413H23.1384V27.0157H25.7128V29.5901H28.2872V41.1593H25.7128V43.7337H23.1384V46.2924H15.4308V54ZM7.70756 19.2924H12.8564V7.72326H7.70756V10.2977H5.13314V16.718H7.70756V19.2924ZM15.4308 43.7337H20.564V41.1593H23.1384V32.1488H20.564V29.5901H15.4308V43.7337Z" fill="white"/>
</svg>
