<svg width="51" height="14" viewBox="0 0 51 14" fill="none" xmlns="http://www.w3.org/2000/svg">
<g opacity="0.7">
<path fill-rule="evenodd" clip-rule="evenodd" d="M6 3.5H2V10.5H10V5.5H7V4.5H11V11.5H1V2.5H6V3.5ZM6 3.5H7V4.5H6V3.5Z" fill="white"/>
<path d="M5.5 7.5V6.5H6.5V7.5H5.5Z" fill="white"/>
<path d="M4.5 8.5V7.5H5.5V8.5H4.5Z" fill="white"/>
<path d="M3.5 9.5V8.5H4.5V9.5H3.5Z" fill="white"/>
<path d="M6.5 8.5V7.5H7.5V8.5H6.5Z" fill="white"/>
<path d="M7.5 9.5V8.5H8.5V9.5H7.5Z" fill="white"/>
<path d="M16.8555 11.293C16.4102 11.293 16.123 11.0234 16.123 10.6016C16.123 10.3555 16.2227 10.1562 16.3984 10.0391C16.2109 9.9043 16.0996 9.6875 16.0996 9.42969C16.0938 9.18359 16.1992 8.97852 16.3691 8.84375C16.1992 8.70898 16.0996 8.50391 16.0996 8.25781C16.0996 8 16.2109 7.7832 16.3984 7.64844C16.2227 7.53125 16.123 7.33203 16.123 7.08594C16.123 6.83984 16.2227 6.64062 16.3984 6.52344C16.2109 6.38867 16.0996 6.17188 16.0996 5.91406C16.0938 5.66797 16.1992 5.46289 16.3691 5.32812C16.1992 5.19336 16.0996 4.98828 16.0996 4.74219C16.0996 4.48438 16.2109 4.26758 16.3984 4.13281C16.2227 4.01562 16.123 3.81641 16.123 3.57031C16.123 3.14844 16.4102 2.87891 16.8555 2.87891H20.207C20.6523 2.87891 20.9395 3.14844 20.9395 3.57031C20.9395 3.76953 20.875 3.93359 20.7637 4.05078C20.8516 4.01562 20.957 3.99219 21.0625 3.99219C21.4902 3.99219 21.8125 4.31445 21.8125 4.74219C21.8125 4.98828 21.707 5.19336 21.5371 5.32812C21.707 5.46289 21.8125 5.66797 21.8125 5.91406C21.8125 6.3418 21.4902 6.6582 21.0625 6.6582C20.957 6.6582 20.8516 6.64062 20.7637 6.60547C20.875 6.72266 20.9395 6.88672 20.9395 7.08594C20.9395 7.28516 20.875 7.44922 20.7637 7.56641C20.8516 7.53125 20.957 7.50781 21.0625 7.50781C21.4902 7.50781 21.8125 7.83008 21.8125 8.25781C21.8125 8.50391 21.707 8.70898 21.5371 8.84375C21.707 8.97852 21.8125 9.18359 21.8125 9.42969C21.8125 9.85742 21.4902 10.1738 21.0625 10.1738C20.957 10.1738 20.8516 10.1562 20.7637 10.1211C20.875 10.2383 20.9395 10.4023 20.9395 10.6016C20.9395 11.0234 20.6523 11.293 20.207 11.293H16.8555ZM20.207 6.39453C20.3242 6.39453 20.4355 6.41211 20.5293 6.45312C20.3945 6.31836 20.3184 6.13086 20.3184 5.91406C20.3184 5.66797 20.418 5.46289 20.5879 5.32812C20.418 5.19336 20.3184 4.98828 20.3184 4.74219C20.3184 4.52539 20.3945 4.33789 20.5293 4.20898C20.4355 4.24414 20.3242 4.26172 20.207 4.26172H17.4297C17.5293 4.39062 17.5938 4.55469 17.5938 4.74219C17.5938 4.98828 17.4883 5.19336 17.3184 5.32812C17.4883 5.46289 17.5938 5.66797 17.5938 5.91406C17.5938 6.10156 17.5293 6.26562 17.4297 6.39453H20.207ZM20.207 9.91016C20.3242 9.91016 20.4355 9.92773 20.5293 9.96875C20.3945 9.83398 20.3184 9.64648 20.3184 9.42969C20.3184 9.18359 20.418 8.97852 20.5879 8.84375C20.418 8.70898 20.3184 8.50391 20.3184 8.25781C20.3184 8.04102 20.3945 7.85352 20.5293 7.72461C20.4355 7.75977 20.3242 7.77734 20.207 7.77734H17.4297C17.5293 7.90625 17.5938 8.07031 17.5938 8.25781C17.5938 8.50391 17.4883 8.70898 17.3184 8.84375C17.4883 8.97852 17.5938 9.18359 17.5938 9.42969C17.5938 9.61719 17.5293 9.78125 17.4297 9.91016H20.207ZM23.71 11.3457C23.2823 11.3457 22.9659 11.0293 22.9659 10.6016C22.96 10.3555 23.0655 10.1504 23.2354 10.0156C23.0655 9.88086 22.9659 9.67578 22.9659 9.42969C22.9659 9.17188 23.0772 8.95508 23.2647 8.82031C23.0889 8.70312 22.9893 8.50391 22.9893 8.25781C22.9893 8.01172 23.0889 7.8125 23.2647 7.69531C23.0772 7.56055 22.9659 7.34375 22.9659 7.08594C22.96 6.83984 23.0655 6.63477 23.2354 6.5C23.0655 6.36523 22.9659 6.16016 22.9659 5.91406C22.9659 5.48633 23.2823 5.16406 23.71 5.16406C23.7979 5.16406 23.8799 5.18164 23.9561 5.20508C23.8623 5.08203 23.8096 4.92383 23.8096 4.74219C23.8096 4.31445 24.126 3.99219 24.5538 3.99219C24.6592 3.99219 24.7647 4.01562 24.8526 4.05078C24.7413 3.93359 24.6768 3.76953 24.6768 3.57031C24.6768 3.14844 24.9639 2.87891 25.4092 2.87891H26.2295C26.6748 2.87891 26.962 3.14844 26.962 3.57031C26.962 3.76953 26.8975 3.93359 26.7862 4.05078C26.8741 4.01562 26.9795 3.99219 27.085 3.99219C27.5127 3.99219 27.835 4.31445 27.835 4.74219C27.835 4.92383 27.7764 5.08203 27.6827 5.20508C27.7588 5.18164 27.8409 5.16406 27.9288 5.16406C28.3565 5.16406 28.6788 5.48633 28.6788 5.91406C28.6788 6.16016 28.5733 6.36523 28.4034 6.5C28.5733 6.63477 28.6788 6.83984 28.6788 7.08594C28.6729 7.34375 28.5616 7.56055 28.3741 7.69531C28.5498 7.8125 28.6495 8.01172 28.6495 8.25781C28.6495 8.50391 28.5498 8.70312 28.3741 8.82031C28.5616 8.95508 28.6788 9.17188 28.6788 9.42969C28.6788 9.67578 28.5733 9.88086 28.4034 10.0156C28.5733 10.1504 28.6788 10.3555 28.6788 10.6016C28.6788 11.0293 28.3565 11.3457 27.9288 11.3457C27.501 11.3457 27.1846 11.0293 27.1846 10.6016C27.1846 10.3555 27.2842 10.1504 27.4541 10.0156C27.2842 9.88086 27.1846 9.67578 27.1846 9.42969C27.1846 9.24219 27.2432 9.07812 27.3428 8.94922H24.2959C24.3955 9.07812 24.46 9.24219 24.46 9.42969C24.46 9.67578 24.3545 9.88086 24.1846 10.0156C24.3545 10.1504 24.46 10.3555 24.46 10.6016C24.46 11.0293 24.1377 11.3457 23.71 11.3457ZM24.5538 5.48633C24.4659 5.49219 24.3838 5.47461 24.3077 5.45117C24.4014 5.57422 24.46 5.73242 24.46 5.91406C24.46 6.16016 24.3545 6.36523 24.1846 6.5C24.3545 6.63477 24.46 6.83984 24.46 7.08594C24.46 7.27344 24.3955 7.4375 24.2959 7.56641H27.3428C27.2432 7.4375 27.1846 7.27344 27.1846 7.08594C27.1846 6.83984 27.2842 6.63477 27.4541 6.5C27.2842 6.36523 27.1846 6.16016 27.1846 5.91406C27.1846 5.73242 27.2373 5.57422 27.3311 5.45117C27.2549 5.47461 27.1729 5.48633 27.085 5.48633C26.6573 5.48633 26.3409 5.16992 26.3409 4.74219C26.3409 4.52539 26.417 4.33789 26.5518 4.20898C26.458 4.24414 26.3467 4.26172 26.2295 4.26172H25.4092C25.292 4.26172 25.1807 4.24414 25.087 4.20312C25.2217 4.33789 25.3038 4.52539 25.3038 4.74219C25.3038 5.16992 24.9815 5.48633 24.5538 5.48633ZM32.2638 11.3457C31.836 11.3457 31.5196 11.0293 31.5196 10.6016C31.5196 10.3555 31.6192 10.1504 31.7891 10.0156C31.6192 9.88086 31.5196 9.67578 31.5196 9.42969C31.5196 9.18359 31.6192 8.97852 31.7891 8.84375C31.6192 8.70898 31.5196 8.50391 31.5196 8.25781C31.5196 8.01172 31.6192 7.80664 31.7891 7.67188C31.6192 7.53711 31.5196 7.33203 31.5196 7.08594C31.5196 6.83984 31.6192 6.63477 31.7891 6.5C31.6192 6.36523 31.5196 6.16016 31.5196 5.91406C31.5196 5.66797 31.6192 5.46289 31.7891 5.32812C31.6192 5.19336 31.5196 4.98828 31.5196 4.74219C31.5196 4.55469 31.5782 4.39062 31.6778 4.26172H29.7442C29.2989 4.26172 29.0118 3.99219 29.0118 3.57031C29.0118 3.14844 29.2989 2.87891 29.7442 2.87891H34.7833C35.2286 2.87891 35.5157 3.14844 35.5157 3.57031C35.5157 3.99219 35.2286 4.26172 34.7833 4.26172H32.8497C32.9493 4.39062 33.0138 4.55469 33.0138 4.74219C33.0138 4.98828 32.9083 5.19336 32.7384 5.32812C32.9083 5.46289 33.0138 5.66797 33.0138 5.91406C33.0138 6.16016 32.9083 6.36523 32.7384 6.5C32.9083 6.63477 33.0138 6.83984 33.0138 7.08594C33.0138 7.33203 32.9083 7.53711 32.7384 7.67188C32.9083 7.80664 33.0138 8.01172 33.0138 8.25781C33.0138 8.50391 32.9083 8.70898 32.7384 8.84375C32.9083 8.97852 33.0138 9.18359 33.0138 9.42969C33.0138 9.67578 32.9083 9.88086 32.7384 10.0156C32.9083 10.1504 33.0138 10.3555 33.0138 10.6016C33.0138 11.0293 32.6915 11.3457 32.2638 11.3457ZM37.4425 10.1738C37.0148 10.1738 36.6984 9.85742 36.6984 9.42969C36.6984 9.24805 36.7511 9.08984 36.8448 8.9668C36.7687 8.99023 36.6866 9.00195 36.5987 9.00195C36.171 9.00195 35.8546 8.68555 35.8546 8.25781C35.8487 8.01172 35.9542 7.80664 36.1241 7.67188C35.9542 7.53711 35.8546 7.33203 35.8546 7.08594C35.8487 6.83984 35.9542 6.63477 36.1241 6.5C35.9542 6.36523 35.8546 6.16016 35.8546 5.91406C35.8546 5.48633 36.171 5.16406 36.5987 5.16406C36.6866 5.16406 36.7687 5.18164 36.8448 5.20508C36.7511 5.08203 36.6984 4.92383 36.6984 4.74219C36.6984 4.31445 37.0148 3.99219 37.4425 3.99219C37.548 3.99219 37.6534 4.01562 37.7413 4.05078C37.63 3.93359 37.5655 3.76953 37.5655 3.57031C37.5655 3.14844 37.8527 2.87891 38.298 2.87891H40.8058C41.2511 2.87891 41.5382 3.14844 41.5382 3.57031C41.5382 3.76953 41.4737 3.93359 41.3624 4.05078C41.4503 4.01562 41.5558 3.99219 41.6612 3.99219C42.089 3.99219 42.4112 4.31445 42.4112 4.74219C42.4112 5.16992 42.089 5.48633 41.6612 5.48633C41.2335 5.48633 40.9171 5.16992 40.9171 4.74219C40.9171 4.52539 40.9933 4.33789 41.128 4.20898C41.0343 4.24414 40.923 4.26172 40.8058 4.26172H38.298C38.1808 4.26172 38.0695 4.24414 37.9757 4.20312C38.1105 4.33789 38.1925 4.52539 38.1925 4.74219C38.1925 5.16992 37.8702 5.48633 37.4425 5.48633C37.3546 5.49219 37.2726 5.47461 37.1964 5.45117C37.2902 5.57422 37.3487 5.73242 37.3487 5.91406C37.3487 6.16016 37.2433 6.36523 37.0734 6.5C37.2433 6.63477 37.3487 6.83984 37.3487 7.08594C37.3487 7.33203 37.2433 7.53711 37.0734 7.67188C37.2433 7.80664 37.3487 8.01172 37.3487 8.25781C37.3487 8.43945 37.2902 8.59766 37.1964 8.7207C37.2726 8.69727 37.3546 8.67969 37.4425 8.67969C37.8702 8.67969 38.1925 9.00195 38.1925 9.42969C38.1925 9.64648 38.1105 9.83398 37.9757 9.96289C38.0695 9.92773 38.1808 9.91016 38.298 9.91016H40.8058C40.923 9.91016 41.0343 9.92773 41.128 9.96875C40.9933 9.83398 40.9171 9.64648 40.9171 9.42969C40.9171 9.00195 41.2335 8.67969 41.6612 8.67969C42.089 8.67969 42.4112 9.00195 42.4112 9.42969C42.4112 9.85742 42.089 10.1738 41.6612 10.1738C41.5558 10.1738 41.4503 10.1562 41.3624 10.1211C41.4737 10.2383 41.5382 10.4023 41.5382 10.6016C41.5382 11.0234 41.2511 11.293 40.8058 11.293H38.298C37.8527 11.293 37.5655 11.0234 37.5655 10.6016C37.5655 10.4023 37.63 10.2383 37.7413 10.1211C37.6534 10.1562 37.548 10.1738 37.4425 10.1738ZM44.3088 11.3457C43.881 11.3457 43.5646 11.0293 43.5646 10.6016C43.5588 10.3555 43.6642 10.1504 43.8341 10.0156C43.6642 9.88086 43.5646 9.67578 43.5646 9.42969C43.5588 9.18359 43.6642 8.97852 43.8341 8.84375C43.6642 8.70898 43.5646 8.50391 43.5646 8.25781C43.5646 8 43.6759 7.7832 43.8634 7.64844C43.6877 7.53125 43.588 7.33203 43.588 7.08594C43.588 6.83984 43.6877 6.64062 43.8634 6.52344C43.6759 6.38867 43.5646 6.17188 43.5646 5.91406C43.5588 5.66797 43.6642 5.46289 43.8341 5.32812C43.6642 5.19336 43.5646 4.98828 43.5646 4.74219C43.5588 4.49609 43.6642 4.29102 43.8341 4.15625C43.6642 4.02148 43.5646 3.81641 43.5646 3.57031C43.5646 3.14258 43.881 2.82031 44.3088 2.82031C44.7365 2.82031 45.0588 3.14258 45.0588 3.57031C45.0588 3.81641 44.9533 4.02148 44.7834 4.15625C44.9533 4.29102 45.0588 4.49609 45.0588 4.74219C45.0588 4.98828 44.9533 5.19336 44.7834 5.32812C44.9533 5.46289 45.0588 5.66797 45.0588 5.91406C45.0588 6.10156 44.9943 6.26562 44.8947 6.39453H48.7853C48.6857 6.26562 48.6271 6.10156 48.6271 5.91406C48.6271 5.66797 48.7267 5.46289 48.8966 5.32812C48.7267 5.19336 48.6271 4.98828 48.6271 4.74219C48.6271 4.49609 48.7267 4.29102 48.8966 4.15625C48.7267 4.02148 48.6271 3.81641 48.6271 3.57031C48.6271 3.14258 48.9435 2.82031 49.3713 2.82031C49.799 2.82031 50.1213 3.14258 50.1213 3.57031C50.1213 3.81641 50.0158 4.02148 49.8459 4.15625C50.0158 4.29102 50.1213 4.49609 50.1213 4.74219C50.1213 4.98828 50.0158 5.19336 49.8459 5.32812C50.0158 5.46289 50.1213 5.66797 50.1213 5.91406C50.1213 6.17188 50.0041 6.38867 49.8166 6.52344C49.9923 6.64062 50.092 6.83984 50.092 7.08594C50.092 7.33203 49.9923 7.53125 49.8166 7.64844C50.0041 7.7832 50.1213 8 50.1213 8.25781C50.1213 8.50391 50.0158 8.70898 49.8459 8.84375C50.0158 8.97852 50.1213 9.18359 50.1213 9.42969C50.1213 9.67578 50.0158 9.88086 49.8459 10.0156C50.0158 10.1504 50.1213 10.3555 50.1213 10.6016C50.1213 11.0293 49.799 11.3457 49.3713 11.3457C48.9435 11.3457 48.6271 11.0293 48.6271 10.6016C48.6271 10.3555 48.7267 10.1504 48.8966 10.0156C48.7267 9.88086 48.6271 9.67578 48.6271 9.42969C48.6271 9.18359 48.7267 8.97852 48.8966 8.84375C48.7267 8.70898 48.6271 8.50391 48.6271 8.25781C48.6271 8.07031 48.6857 7.90625 48.7853 7.77734H44.8947C44.9943 7.90625 45.0588 8.07031 45.0588 8.25781C45.0588 8.50391 44.9533 8.70898 44.7834 8.84375C44.9533 8.97852 45.0588 9.18359 45.0588 9.42969C45.0588 9.67578 44.9533 9.88086 44.7834 10.0156C44.9533 10.1504 45.0588 10.3555 45.0588 10.6016C45.0588 11.0293 44.7365 11.3457 44.3088 11.3457Z" fill="white"/>
</g>
</svg>
