<svg preserveAspectRatio="none" width="100%" height="100%" overflow="visible" style="display: block;" viewBox="0 0 181 51.1558" fill="none" xmlns="http://www.w3.org/2000/svg">
<g id="Union" opacity="0.8" filter="url(#filter0_f_0_9)" style="mix-blend-mode:screen">
<path d="M167.175 13.2614C168.805 14.4354 169.62 15.0224 170.06 15.8811C170.5 16.7398 170.5 17.7443 170.5 19.7533V30.5055C170.5 34.2733 170.5 36.1573 169.33 37.3286C168.16 38.4999 166.276 38.5018 162.508 38.5055L77.7577 38.5888C77.6571 38.5889 77.6068 38.589 77.558 38.5902C76.6698 38.6128 75.8144 38.9305 75.1267 39.4931C75.0889 39.524 75.0508 39.5568 74.9745 39.6223C74.8982 39.688 74.86 39.7208 74.8221 39.7518C74.1335 40.3152 73.2766 40.6329 72.3872 40.6546C72.3383 40.6558 72.2879 40.6558 72.1872 40.6558H14.3468C13.4523 40.6558 12.5955 40.2957 11.9696 39.6567L11.0894 38.7581C11.0248 38.6921 10.9362 38.655 10.8437 38.6551C10.654 38.6555 10.5 38.5018 10.5 38.3121V18.6476C10.5 14.8799 10.5 12.9961 11.6701 11.8247C12.8402 10.6534 14.7241 10.6515 18.4917 10.6476L160.752 10.5003C162.034 10.499 162.675 10.4983 163.274 10.6915C163.874 10.8847 164.395 11.2592 165.435 12.0084L167.175 13.2614Z" fill="url(#paint0_linear_0_9)"/>
<path d="M165.435 12.0084L165.727 11.6026L165.435 12.0084ZM163.274 10.6915L163.121 11.1674L163.274 10.6915ZM10.8437 38.6551L10.8427 38.1551L10.8437 38.6551ZM11.0894 38.7581L10.7323 39.108L11.0894 38.7581ZM74.9745 39.6223L75.3005 40.0015L74.9745 39.6223ZM74.8221 39.7518L75.1387 40.1388L74.8221 39.7518ZM72.3872 40.6546L72.3994 41.1545L72.3872 40.6546ZM77.7577 38.5888L77.7572 38.0888L77.7577 38.5888ZM77.558 38.5902L77.5707 39.0901L77.558 38.5902ZM75.1267 39.4931L75.4433 39.88L75.1267 39.4931ZM169.33 37.3286L168.976 36.9752L169.33 37.3286ZM167.175 13.2614L166.883 13.6671L167.175 13.2614ZM170.06 15.8811L170.505 15.6532L170.06 15.8811ZM170.5 19.7533H170V30.5055H170.5H171V19.7533H170.5ZM162.508 38.5055L162.507 38.0055L77.7572 38.0888L77.7577 38.5888L77.7582 39.0888L162.508 39.0055L162.508 38.5055ZM72.1872 40.6558V40.1558H14.3468V40.6558V41.1558H72.1872V40.6558ZM11.9696 39.6567L12.3268 39.3069L11.4466 38.4083L11.0894 38.7581L10.7323 39.108L11.6124 40.0066L11.9696 39.6567ZM10.5 38.3121H11V18.6476H10.5H10V38.3121H10.5ZM18.4917 10.6476L18.4922 11.1476L160.752 11.0003L160.752 10.5003L160.751 10.0003L18.4912 10.1476L18.4917 10.6476ZM165.435 12.0084L165.143 12.4141L166.883 13.6671L167.175 13.2614L167.467 12.8557L165.727 11.6026L165.435 12.0084ZM160.752 10.5003L160.752 11.0003C162.065 10.9989 162.614 11.004 163.121 11.1674L163.274 10.6915L163.428 10.2156C162.736 9.99267 162.002 9.99901 160.751 10.0003L160.752 10.5003ZM165.435 12.0084L165.727 11.6026C164.712 10.8718 164.12 10.4385 163.428 10.2156L163.274 10.6915L163.121 11.1674C163.629 11.3309 164.077 11.6467 165.143 12.4141L165.435 12.0084ZM10.5 18.6476H11C11 16.7496 11.0011 15.3764 11.1418 14.3291C11.2806 13.2962 11.547 12.6554 12.0238 12.1781L11.6701 11.8247L11.3164 11.4714C10.6231 12.1654 10.3044 13.0522 10.1507 14.1959C9.99894 15.3253 10 16.7778 10 18.6476H10.5ZM18.4917 10.6476L18.4912 10.1476C16.6215 10.1495 15.1689 10.1499 14.0397 10.3029C12.8961 10.4578 12.0097 10.7773 11.3164 11.4714L11.6701 11.8247L12.0238 12.1781C12.5007 11.7008 13.1412 11.4337 14.1739 11.2938C15.2211 11.152 16.5943 11.1495 18.4922 11.1476L18.4917 10.6476ZM10.8437 38.6551L10.8427 38.1551C10.9295 38.155 11 38.2253 11 38.3121H10.5H10C10 38.7784 10.3785 39.1561 10.8447 39.1551L10.8437 38.6551ZM11.0894 38.7581L11.4466 38.4083C11.2877 38.246 11.0699 38.1547 10.8427 38.1551L10.8437 38.6551L10.8447 39.1551C10.8024 39.1552 10.7619 39.1382 10.7323 39.108L11.0894 38.7581ZM14.3468 40.6558V40.1558C13.5867 40.1558 12.8587 39.8498 12.3268 39.3069L11.9696 39.6567L11.6124 40.0066C12.3324 40.7416 13.3179 41.1558 14.3468 41.1558V40.6558ZM74.9745 39.6223L74.6486 39.2432C74.5704 39.3104 74.5376 39.3386 74.5055 39.3648L74.8221 39.7518L75.1387 40.1388C75.1824 40.1031 75.226 40.0656 75.3005 40.0015L74.9745 39.6223ZM72.1872 40.6558V41.1558C72.2855 41.1558 72.343 41.1559 72.3994 41.1545L72.3872 40.6546L72.3749 40.1548C72.3336 40.1558 72.2903 40.1558 72.1872 40.1558V40.6558ZM74.8221 39.7518L74.5055 39.3648C73.903 39.8578 73.1532 40.1357 72.3749 40.1548L72.3872 40.6546L72.3994 41.1545C73.4 41.13 74.364 40.7726 75.1387 40.1388L74.8221 39.7518ZM77.7577 38.5888L77.7572 38.0888C77.659 38.0889 77.6017 38.089 77.5453 38.0904L77.558 38.5902L77.5707 39.0901C77.612 39.089 77.6552 39.0889 77.7582 39.0888L77.7577 38.5888ZM74.9745 39.6223L75.3005 40.0015C75.3786 39.9343 75.4114 39.9062 75.4433 39.88L75.1267 39.4931L74.8101 39.1061C74.7665 39.1418 74.723 39.1792 74.6486 39.2432L74.9745 39.6223ZM77.558 38.5902L77.5453 38.0904C76.5461 38.1158 75.5837 38.4731 74.8101 39.1061L75.1267 39.4931L75.4433 39.88C76.0451 39.3878 76.7935 39.1098 77.5707 39.0901L77.558 38.5902ZM170.5 30.5055H170C170 32.4035 169.999 33.7768 169.858 34.8241C169.719 35.8571 169.453 36.4979 168.976 36.9752L169.33 37.3286L169.684 37.682C170.377 36.988 170.696 36.1011 170.849 34.9573C171.001 33.8279 171 32.3753 171 30.5055H170.5ZM162.508 38.5055L162.508 39.0055C164.378 39.0037 165.831 39.0033 166.96 38.8504C168.104 38.6955 168.99 38.376 169.684 37.682L169.33 37.3286L168.976 36.9752C168.499 37.4525 167.859 37.7196 166.826 37.8594C165.779 38.0012 164.405 38.0036 162.507 38.0055L162.508 38.5055ZM170.5 19.7533H171C171 18.7576 171 17.9781 170.943 17.3409C170.885 16.6938 170.764 16.1591 170.505 15.6532L170.06 15.8811L169.615 16.109C169.796 16.4618 169.895 16.8587 169.947 17.4308C170 18.0128 170 18.74 170 19.7533H170.5ZM167.175 13.2614L166.883 13.6671C167.705 14.2593 168.295 14.6847 168.737 15.0674C169.171 15.4435 169.434 15.7563 169.615 16.109L170.06 15.8811L170.505 15.6532C170.246 15.1472 169.882 14.7371 169.391 14.3116C168.908 13.8926 168.275 13.4375 167.467 12.8557L167.175 13.2614Z" fill="var(--stroke-0, #FF4208)" fill-opacity="0.4"/>
</g>
<defs>
<filter id="filter0_f_0_9" x="-1.78814e-07" y="2.98023e-07" width="181" height="51.1558" filterUnits="userSpaceOnUse" color-interpolation-filters="sRGB">
<feFlood flood-opacity="0" result="BackgroundImageFix"/>
<feBlend mode="normal" in="SourceGraphic" in2="BackgroundImageFix" result="shape"/>
<feGaussianBlur stdDeviation="5" result="effect1_foregroundBlur_0_9"/>
</filter>
<linearGradient id="paint0_linear_0_9" x1="10.5" y1="25.5784" x2="170.5" y2="25.5785" gradientUnits="userSpaceOnUse">
<stop stop-color="#FF4208" stop-opacity="0.27"/>
<stop offset="1" stop-color="#FF5A27" stop-opacity="0.8"/>
</linearGradient>
</defs>
</svg>
