<svg preserveAspectRatio="none" width="100%" height="100%" overflow="visible" style="display: block;" viewBox="0 0 221 91.1558" fill="none" xmlns="http://www.w3.org/2000/svg">
<g id="Union" opacity="0.6" filter="url(#filter0_f_0_12)" style="mix-blend-mode:screen">
<path d="M187.174 33.2605C188.805 34.4345 189.62 35.0214 190.06 35.8802C190.5 36.739 190.5 37.7436 190.5 39.7528V50.5054C190.5 54.2733 190.5 56.1572 189.33 57.3286C188.16 58.4999 186.276 58.5018 182.508 58.5054L97.7594 58.5879C97.6582 58.588 97.6076 58.588 97.5585 58.5893C96.6706 58.612 95.8156 58.9295 95.1281 59.4918C95.0901 59.5229 95.0517 59.5559 94.975 59.6219C94.8982 59.6879 94.8598 59.7209 94.8217 59.7521C94.1333 60.3152 93.2768 60.6328 92.3877 60.6546C92.3385 60.6558 92.2878 60.6558 92.1865 60.6558H34.3474C33.4526 60.6558 32.5953 60.2956 31.9691 59.6563L31.0883 58.757C31.0237 58.6911 30.9353 58.654 30.843 58.6542C30.6537 58.6546 30.5 58.5012 30.5 58.3118V38.6466C30.5 34.879 30.5 32.9951 31.6701 31.8238C32.8402 30.6525 34.7241 30.6505 38.4918 30.6466L180.752 30.5003C182.034 30.499 182.675 30.4983 183.275 30.6915C183.874 30.8846 184.394 31.259 185.435 32.0079L187.174 33.2605Z" fill="url(#paint0_linear_0_12)"/>
<path d="M185.435 32.0079L185.142 32.4137L185.435 32.0079ZM183.275 30.6915L183.428 30.2155L183.275 30.6915ZM30.843 58.6542L30.842 58.1542L30.843 58.6542ZM31.0883 58.757L31.4455 58.4071L31.0883 58.757ZM31.9691 59.6563L32.3263 59.3064L31.9691 59.6563ZM94.975 59.6219L94.649 59.2427L94.975 59.6219ZM94.8217 59.7521L94.5051 59.3651L94.8217 59.7521ZM92.3877 60.6546L92.3754 60.1548L92.3877 60.6546ZM97.7594 58.5879L97.7599 59.0879L97.7594 58.5879ZM97.5585 58.5893L97.5457 58.0895L97.5585 58.5893ZM95.1281 59.4918L95.4447 59.8789L95.1281 59.4918ZM182.508 58.5054L182.507 58.0054L182.508 58.5054ZM189.33 57.3286L189.684 57.682L189.33 57.3286ZM187.174 33.2605L187.466 32.8547L187.174 33.2605ZM190.06 35.8802L189.615 36.1082L190.06 35.8802ZM190.5 39.7528H190V50.5054H190.5H191V39.7528H190.5ZM182.508 58.5054L182.507 58.0054L97.7589 58.0879L97.7594 58.5879L97.7599 59.0879L182.508 59.0054L182.508 58.5054ZM92.1865 60.6558V60.1558H34.3474V60.6558V61.1558H92.1865V60.6558ZM31.9691 59.6563L32.3263 59.3064L31.4455 58.4071L31.0883 58.757L30.7311 59.1068L31.612 60.0061L31.9691 59.6563ZM30.5 58.3118H31V38.6466H30.5H30V58.3118H30.5ZM38.4918 30.6466L38.4923 31.1466L180.753 31.0003L180.752 30.5003L180.752 30.0003L38.4913 30.1466L38.4918 30.6466ZM185.435 32.0079L185.142 32.4137L186.882 33.6662L187.174 33.2605L187.466 32.8547L185.727 31.6022L185.435 32.0079ZM180.752 30.5003L180.753 31.0003C182.066 30.999 182.614 31.004 183.121 31.1674L183.275 30.6915L183.428 30.2155C182.736 29.9927 182.002 29.999 180.752 30.0003L180.752 30.5003ZM185.435 32.0079L185.727 31.6022C184.712 30.8715 184.12 30.4384 183.428 30.2155L183.275 30.6915L183.121 31.1674C183.629 31.3308 184.077 31.6466 185.142 32.4137L185.435 32.0079ZM30.5 38.6466H31C31 36.7487 31.0011 35.3755 31.1418 34.3282C31.2806 33.2953 31.547 32.6545 32.0239 32.1772L31.6701 31.8238L31.3164 31.4704C30.6231 32.1644 30.3044 33.0512 30.1507 34.195C29.9989 35.3244 30 36.7769 30 38.6466H30.5ZM38.4918 30.6466L38.4913 30.1466C36.6215 30.1486 35.169 30.149 34.0397 30.3019C32.8961 30.4568 32.0097 30.7764 31.3164 31.4704L31.6701 31.8238L32.0239 32.1772C32.5007 31.6998 33.1412 31.4328 34.174 31.2929C35.2211 31.1511 36.5943 31.1486 38.4923 31.1466L38.4918 30.6466ZM30.843 58.6542L30.842 58.1542C30.9292 58.154 31 58.2246 31 58.3118H30.5H30C30 58.7777 30.3782 59.1551 30.844 59.1542L30.843 58.6542ZM31.0883 58.757L31.4455 58.4071C31.2866 58.2449 31.069 58.1537 30.842 58.1542L30.843 58.6542L30.844 59.1542C30.8015 59.1543 30.7608 59.1372 30.7311 59.1068L31.0883 58.757ZM34.3474 60.6558V60.1558C33.587 60.1558 32.8585 59.8497 32.3263 59.3064L31.9691 59.6563L31.612 60.0061C32.3322 60.7415 33.3182 61.1558 34.3474 61.1558V60.6558ZM94.975 59.6219L94.649 59.2427C94.5704 59.3104 94.5374 59.3387 94.5051 59.3651L94.8217 59.7521L95.1383 60.1391C95.1822 60.1032 95.226 60.0655 95.301 60.001L94.975 59.6219ZM92.1865 60.6558V61.1558C92.2854 61.1558 92.3432 61.1559 92.4 61.1545L92.3877 60.6546L92.3754 60.1548C92.3337 60.1558 92.2902 60.1558 92.1865 60.1558V60.6558ZM94.8217 59.7521L94.5051 59.3651C93.9028 59.8578 93.1533 60.1356 92.3754 60.1548L92.3877 60.6546L92.4 61.1545C93.4002 61.1299 94.3638 60.7726 95.1383 60.1391L94.8217 59.7521ZM97.7594 58.5879L97.7589 58.0879C97.6601 58.088 97.6024 58.088 97.5457 58.0895L97.5585 58.5893L97.5713 59.0891C97.6128 59.0881 97.6563 59.088 97.7599 59.0879L97.7594 58.5879ZM94.975 59.6219L95.301 60.001C95.3795 59.9335 95.4125 59.9052 95.4447 59.8789L95.1281 59.4918L94.8115 59.1048C94.7677 59.1407 94.7239 59.1784 94.649 59.2427L94.975 59.6219ZM97.5585 58.5893L97.5457 58.0895C96.5469 58.115 95.5849 58.4722 94.8115 59.1048L95.1281 59.4918L95.4447 59.8789C96.0462 59.3868 96.7944 59.109 97.5713 59.0891L97.5585 58.5893ZM190.5 50.5054H190C190 52.4035 189.999 53.7768 189.858 54.8241C189.719 55.8571 189.453 56.4979 188.976 56.9752L189.33 57.3286L189.684 57.682C190.377 56.9879 190.696 56.1011 190.849 54.9573C191.001 53.8279 191 52.3752 191 50.5054H190.5ZM182.508 58.5054L182.508 59.0054C184.378 59.0036 185.831 59.0032 186.96 58.8504C188.104 58.6955 188.99 58.376 189.684 57.682L189.33 57.3286L188.976 56.9752C188.499 57.4525 187.859 57.7196 186.826 57.8594C185.779 58.0012 184.405 58.0036 182.507 58.0054L182.508 58.5054ZM190.5 39.7528H191C191 38.757 191 37.9774 190.943 37.3402C190.885 36.693 190.764 36.1582 190.505 35.6523L190.06 35.8802L189.615 36.1082C189.796 36.4609 189.895 36.8579 189.947 37.43C190 38.0121 190 38.7394 190 39.7528H190.5ZM187.174 33.2605L186.882 33.6662C187.705 34.2584 188.295 34.6837 188.736 35.0664C189.17 35.4426 189.434 35.7554 189.615 36.1082L190.06 35.8802L190.505 35.6523C190.246 35.1463 189.882 34.7362 189.391 34.3107C188.908 33.8917 188.275 33.4365 187.466 32.8547L187.174 33.2605Z" fill="var(--stroke-0, #FF4208)" fill-opacity="0.4"/>
</g>
<defs>
<filter id="filter0_f_0_12" x="-1.78814e-07" y="-2.38419e-07" width="221" height="91.1558" filterUnits="userSpaceOnUse" color-interpolation-filters="sRGB">
<feFlood flood-opacity="0" result="BackgroundImageFix"/>
<feBlend mode="normal" in="SourceGraphic" in2="BackgroundImageFix" result="shape"/>
<feGaussianBlur stdDeviation="15" result="effect1_foregroundBlur_0_12"/>
</filter>
<linearGradient id="paint0_linear_0_12" x1="30.5" y1="45.5775" x2="190.5" y2="45.5775" gradientUnits="userSpaceOnUse">
<stop stop-color="#FF4208" stop-opacity="0.27"/>
<stop offset="1" stop-color="#FF5A27" stop-opacity="0.8"/>
</linearGradient>
</defs>
</svg>
