<svg width="11" height="11" viewBox="0 0 11 11" fill="none" xmlns="http://www.w3.org/2000/svg">
<path d="M8.88477 11H2.53906V10.1533H8.88477V11ZM2.53906 10.1543H1.69238V6.76953H2.53906V10.1543ZM5.91016 0.0283203L5.90625 0.864258L8.11328 0.875L8.10938 1.71289L8.11328 1.71387L8.10938 2.53809H8.88574V4.65332H11V5.5H9.73145V10.1543H8.88477V8.03906H7.61621V7.19238H8.88477V5.5H1.69238V6.76953H0.84668V5.5H0V4.65332H2.96191V2.53809H3.42578L2.2041 2.53223L2.20703 1.69238H2.2041L2.20703 0.855469L0.000976562 0.845703L0.00488281 0L5.91016 0.0283203ZM5.50098 8.03906H7.61523V8.88477H5.5V8.03906H4.23145V7.19238H5.50098V8.03906ZM5.5 4.65332H8.03906V3.38477H5.50098V2.54785H5.5V4.65332Z" fill="#87FF50"/>
</svg>
