<svg preserveAspectRatio="none" width="100%" height="100%" overflow="visible" style="display: block;" viewBox="0 0 39.088 21" fill="none" xmlns="http://www.w3.org/2000/svg">
<path id="Vector 44" d="M0.745042 6.39959L8.13685 0.442734C8.49236 0.156231 8.93521 0 9.3918 0H33.2449C34.0733 0 34.7449 0.671573 34.7449 1.5C34.7449 2.32843 35.4165 3 36.2449 3H37.088C38.1926 3 39.088 3.89543 39.088 5V16.8934C39.088 17.3112 38.9572 17.7185 38.7139 18.0582L37.2046 20.1648C36.829 20.689 36.2237 21 35.5788 21H2C0.895431 21 0 20.1046 0 19V7.95686C0 7.35179 0.273919 6.77926 0.745042 6.39959Z" fill="var(--fill-0, #EE5A1A)"/>
</svg>
