<svg width="14" height="14" viewBox="0 0 14 14" fill="none" xmlns="http://www.w3.org/2000/svg">
<path d="M5.25 1.1665H8.75V2.33317H5.25V1.1665Z" fill="white"/>
<path d="M5.25 1.1665H8.75V2.33317H5.25V1.1665Z" fill="#FF0000" fill-opacity="0.2"/>
<path d="M5.25 5.83317H6.41667V10.4998H5.25V5.83317Z" fill="white"/>
<path d="M5.25 5.83317H6.41667V10.4998H5.25V5.83317Z" fill="#FF0000" fill-opacity="0.2"/>
<path d="M7.58333 5.83317H8.75V10.4998H7.58333V5.83317Z" fill="white"/>
<path d="M7.58333 5.83317H8.75V10.4998H7.58333V5.83317Z" fill="#FF0000" fill-opacity="0.2"/>
<path fill-rule="evenodd" clip-rule="evenodd" d="M5.25 3.49984V2.33317H4.08333V3.49984H1.75V4.6665H2.91667V11.6665H4.08333V12.8332H9.91667V11.6665H11.0833V4.6665H12.25V3.49984H9.91667V2.33317H8.75V3.49984H5.25ZM9.91667 11.6665V4.6665H4.08333V11.6665H9.91667Z" fill="white"/>
<path fill-rule="evenodd" clip-rule="evenodd" d="M5.25 3.49984V2.33317H4.08333V3.49984H1.75V4.6665H2.91667V11.6665H4.08333V12.8332H9.91667V11.6665H11.0833V4.6665H12.25V3.49984H9.91667V2.33317H8.75V3.49984H5.25ZM9.91667 11.6665V4.6665H4.08333V11.6665H9.91667Z" fill="#FF0000" fill-opacity="0.2"/>
</svg>
