<svg width="409" height="52" viewBox="0 0 409 52" fill="none" xmlns="http://www.w3.org/2000/svg">
<path d="M8 0C14.4668 0 20.3359 2.55783 24.6512 6.71691C27.3199 9.2889 33.6801 9.2889 36.3488 6.71691C40.6641 2.55783 46.5332 3.12359e-07 53 0H356C362.467 0 368.336 2.55783 372.651 6.71691C375.32 9.2889 381.68 9.2889 384.349 6.71691C388.664 2.55783 394.533 0 401 0H405C407.209 0 409 1.79086 409 4V48C409 50.2091 407.209 52 405 52H401C394.533 52 388.665 49.4422 384.349 45.2833C381.681 42.7112 375.319 42.7112 372.651 45.2833C368.335 49.4422 362.467 52 356 52H53C46.5333 52 40.6645 49.4422 36.3493 45.2833C33.6805 42.7112 27.3195 42.7112 24.6507 45.2833C20.3355 49.4422 14.4667 52 8 52H4C1.79086 52 0 50.2091 0 48V4C0 1.79086 1.79086 0 4 0H8Z" fill="#202020"/>
</svg>
