<svg width="25" height="24" viewBox="0 0 25 24" fill="none" xmlns="http://www.w3.org/2000/svg">
<g clip-path="url(#clip0_210_596)">
<path d="M9.2505 13.2758C10.2807 13.2758 11.2057 12.8254 11.8393 12.1107C11.9472 11.9891 12.1437 11.9891 12.2515 12.1107C12.8852 12.8254 13.8102 13.2758 14.8403 13.2758C16.7507 13.2758 18.2994 11.7269 18.2994 9.81626C18.2994 7.90564 16.7507 6.35677 14.8403 6.35677C13.8102 6.35677 12.8852 6.80716 12.2515 7.5218C12.1437 7.64341 11.9472 7.64341 11.8393 7.5218C11.2057 6.80716 10.2807 6.35677 9.2505 6.35677C7.34013 6.35677 5.79146 7.90564 5.79146 9.81626C5.79146 11.7269 7.34013 13.2758 9.2505 13.2758Z" fill="white"/>
<path fill-rule="evenodd" clip-rule="evenodd" d="M0.480341 0C0.215224 0 0.000305176 0.214903 0.000305176 0.48V23.52C0.000305176 23.7851 0.215224 24 0.48034 24H3.62531C3.76695 23.1201 4.16428 22.2911 4.82193 21.6307C5.15001 21.3013 5.51988 21.0369 5.91699 20.837C6.07062 20.7596 6.11296 20.5526 5.99159 20.4308L4.74077 19.1748C4.59006 19.0234 4.69726 18.7654 4.91085 18.7654H19.0962C19.3097 18.7654 19.4169 19.0234 19.2662 19.1748L18.0411 20.405C17.9187 20.5279 17.9629 20.7369 18.1188 20.8129C18.5343 21.0155 18.921 21.2879 19.2624 21.6307C19.92 22.2911 20.3174 23.1201 20.459 24H23.5221C23.7872 24 24.0021 23.7851 24.0021 23.52V0.48C24.0021 0.214903 23.7872 0 23.5221 0H0.480341ZM12.2198 4.21774C12.1259 4.31196 11.9734 4.31196 11.8796 4.21774L9.97209 2.30215C9.87828 2.20794 9.72574 2.20794 9.63193 2.30215L7.62365 4.31894C7.57861 4.36418 7.5174 4.3896 7.45357 4.3896H4.59268C4.46012 4.3896 4.35266 4.49706 4.35266 4.6296V7.50469C4.35266 7.56816 4.32751 7.62905 4.28273 7.67403L2.29112 9.67408C2.19787 9.76772 2.19787 9.91912 2.29112 10.0128L4.28273 12.0128C4.32751 12.0578 4.35266 12.1187 4.35266 12.1822V15.0536C4.35266 15.1861 4.46012 15.2936 4.59268 15.2936H7.44992C7.51376 15.2936 7.57496 15.319 7.62 15.3642L9.63193 17.3847C9.72574 17.4789 9.87828 17.4789 9.97209 17.3847L11.8663 15.4824C11.9601 15.3882 12.1127 15.3882 12.2065 15.4824L14.114 17.398C14.2078 17.4922 14.3603 17.4922 14.4541 17.398L16.4661 15.3776C16.5111 15.3323 16.5723 15.3069 16.6362 15.3069H19.4578C19.5904 15.3069 19.6978 15.1995 19.6978 15.0669V12.2312C19.6978 12.1678 19.723 12.1069 19.7678 12.0619L21.795 10.0261C21.8882 9.93246 21.8882 9.78107 21.795 9.68743L19.7678 7.65163C19.723 7.60666 19.6978 7.54577 19.6978 7.48229V4.64294C19.6978 4.51039 19.5904 4.40294 19.4578 4.40294H16.6325C16.5687 4.40294 16.5075 4.37751 16.4624 4.33228L14.4541 2.3155C14.3603 2.22128 14.2078 2.22128 14.114 2.3155L12.2198 4.21774Z" fill="white"/>
</g>
<defs>
<clipPath id="clip0_210_596">
<rect width="24.0018" height="24" rx="2.67273" fill="white"/>
</clipPath>
</defs>
</svg>
