<svg width="16" height="16" viewBox="0 0 16 16" fill="none" xmlns="http://www.w3.org/2000/svg">
<path fill-rule="evenodd" clip-rule="evenodd" d="M5.89431 5.08957L5.78857 3.86197L4.56098 3.96771L4.66672 5.19531L3.43912 5.30105L3.54486 6.52864L4.77246 6.42291L4.87819 7.6505L6.10579 7.54476L6.00005 6.31717L7.22765 6.21143L7.12191 4.98383L5.89431 5.08957ZM5.89431 5.08957L6.00005 6.31717L4.77246 6.42291L4.66672 5.19531L5.89431 5.08957Z" fill="white"/>
<path fill-rule="evenodd" clip-rule="evenodd" d="M10.8047 4.66661L10.699 3.43902L9.47136 3.54476L9.5771 4.77235L8.3495 4.87809L8.45524 6.10569L9.68284 5.99995L9.78858 7.22754L11.0162 7.12181L10.9104 5.89421L12.138 5.78847L12.0323 4.56088L10.8047 4.66661ZM10.8047 4.66661L10.9104 5.89421L9.68284 5.99995L9.5771 4.77235L10.8047 4.66661Z" fill="white"/>
<path fill-rule="evenodd" clip-rule="evenodd" d="M11.2277 9.577L11.1219 8.3494L9.89432 8.45514L10.0001 9.68274L8.77246 9.78848L8.8782 11.0161L10.1058 10.9103L10.2115 12.1379L11.4391 12.0322L11.3334 10.8046L12.561 10.6989L12.4552 9.47126L11.2277 9.577ZM11.2277 9.577L11.3334 10.8046L10.1058 10.9103L10.0001 9.68274L11.2277 9.577Z" fill="white"/>
<path d="M6.21153 8.77236L6.31727 9.99995L5.08967 10.1057L4.98393 8.8781L6.21153 8.77236Z" fill="white"/>
<path d="M5.19541 11.3333L3.96782 11.439L3.86208 10.2114L5.08967 10.1057L5.19541 11.3333Z" fill="white"/>
<path d="M6.42301 11.2275L6.31727 9.99995L7.54486 9.89421L7.6506 11.1218L6.42301 11.2275Z" fill="white"/>
<path d="M6.42301 11.2275L5.19541 11.3333L5.30115 12.5609L6.52875 12.4551L6.42301 11.2275Z" fill="white"/>
</svg>
