<svg width="238" height="89" viewBox="0 0 238 89" fill="none" xmlns="http://www.w3.org/2000/svg">
<g filter="url(#filter0_dddd_210_943)">
<path d="M202.507 2.00562C213.248 2.00565 221.955 10.7128 221.955 21.4537C221.955 32.1947 213.248 40.9027 202.507 40.9027H27.4705C26.8539 40.9027 26.2441 40.8732 25.6422 40.8165C25.1477 40.77 24.6725 41.0116 24.3647 41.4014C21.9544 44.4527 15.5768 46.7113 12.1246 47.382C11.31 47.5402 10.8311 46.8203 11.3065 46.1402C12.5884 44.3065 14.7003 41.4221 14.2536 36.1306C14.2291 35.8403 14.0915 35.5699 13.8831 35.3664C10.2678 31.8349 8.02248 26.9068 8.02248 21.4537C8.02269 10.7129 16.7298 2.00583 27.4705 2.00562H202.507Z" fill="url(#paint0_linear_210_943)"/>
<path d="M25.3071 27.7748V17.8286H25.2573L22.1579 19.9558V17.9865L25.2905 15.7845H27.4094V27.7748H25.3071ZM35.0453 27.9825C32.3032 27.9825 30.3921 26.5533 30.3921 24.5093V24.4926C30.3921 22.972 31.4972 21.7921 33.0843 21.4681V21.4182C31.7215 21.0526 30.8241 20.0555 30.8241 18.7759V18.7592C30.8241 16.9229 32.5774 15.5768 35.0453 15.5768C37.5214 15.5768 39.2664 16.9229 39.2664 18.7592V18.7759C39.2664 20.0555 38.369 21.0526 37.0062 21.4182V21.4681C38.5933 21.7921 39.7068 22.972 39.7068 24.4926V24.5093C39.7068 26.5533 37.7873 27.9825 35.0453 27.9825ZM35.0453 20.7368C36.2916 20.7368 37.1475 20.0139 37.1475 18.9753V18.9587C37.1475 17.92 36.2833 17.1971 35.0453 17.1971C33.8072 17.1971 32.943 17.92 32.943 18.9587V18.9753C32.943 20.0139 33.7989 20.7368 35.0453 20.7368ZM35.0453 26.3456C36.4828 26.3456 37.4965 25.523 37.4965 24.3763V24.3597C37.4965 23.2047 36.4911 22.3738 35.0453 22.3738C33.5994 22.3738 32.594 23.2047 32.594 24.3597V24.3763C32.594 25.523 33.6161 26.3456 35.0453 26.3456ZM46.1627 27.9825C43.2212 27.9825 41.4514 25.5978 41.4514 21.7838V21.7672C41.4514 17.9532 43.2212 15.5768 46.1627 15.5768C49.0959 15.5768 50.8741 17.9532 50.8741 21.7672V21.7838C50.8741 25.5978 49.0959 27.9825 46.1627 27.9825ZM46.1627 26.2293C47.7747 26.2293 48.7137 24.5508 48.7137 21.7838V21.7672C48.7137 19.0002 47.7747 17.3384 46.1627 17.3384C44.5424 17.3384 43.6118 19.0002 43.6118 21.7672V21.7838C43.6118 24.5508 44.5424 26.2293 46.1627 26.2293ZM57.355 27.9825C54.4135 27.9825 52.6436 25.5978 52.6436 21.7838V21.7672C52.6436 17.9532 54.4135 15.5768 57.355 15.5768C60.2882 15.5768 62.0663 17.9532 62.0663 21.7672V21.7838C62.0663 25.5978 60.2882 27.9825 57.355 27.9825ZM57.355 26.2293C58.967 26.2293 59.9059 24.5508 59.9059 21.7838V21.7672C59.9059 19.0002 58.967 17.3384 57.355 17.3384C55.7347 17.3384 54.804 19.0002 54.804 21.7672V21.7838C54.804 24.5508 55.7347 26.2293 57.355 26.2293ZM64.1516 23.8279V21.9832H69.5111V23.8279H64.1516ZM71.9454 27.7748V15.7845H74.0892V25.9717H79.5318V27.7748H71.9454ZM80.5784 27.7748L84.866 15.7845H87.2757L91.5633 27.7748H89.3114L88.2977 24.6754H83.8356L82.8219 27.7748H80.5784ZM86.0459 17.92L84.3757 23.0219H87.7576L86.0958 17.92H86.0459ZM97.853 27.9825C94.8118 27.9825 92.9173 26.196 92.9173 23.5454V15.7845H95.0611V23.3709C95.0611 25.0327 96.0749 26.1213 97.853 26.1213C99.6312 26.1213 100.637 25.0327 100.637 23.3709V15.7845H102.772V23.5454C102.772 26.196 100.903 27.9825 97.853 27.9825ZM105.24 27.7748V15.7845H107.167L113.009 24.1852H113.059V15.7845H115.186V27.7748H113.275L107.417 19.3409H107.375V27.7748H105.24ZM122.863 27.9825C119.415 27.9825 117.238 25.6061 117.238 21.7755V21.7672C117.238 17.9366 119.423 15.5768 122.863 15.5768C125.622 15.5768 127.649 17.2968 127.965 19.7397L127.973 19.8228H125.871L125.83 19.6649C125.481 18.2939 124.425 17.4381 122.863 17.4381C120.769 17.4381 119.432 19.1082 119.432 21.7672V21.7755C119.432 24.4428 120.778 26.1213 122.863 26.1213C124.392 26.1213 125.464 25.2986 125.855 23.8196L125.88 23.7365H127.982L127.965 23.8196C127.658 26.2791 125.622 27.9825 122.863 27.9825ZM129.951 27.7748V15.7845H132.095V20.7701H137.928V15.7845H140.063V27.7748H137.928V22.5732H132.095V27.7748H129.951ZM142.497 23.8279V21.9832H147.857V23.8279H142.497ZM150.291 27.7748V15.7845H152.219L158.06 24.1852H158.11V15.7845H160.237V27.7748H158.326L152.468 19.3409H152.427V27.7748H150.291ZM167.981 27.9825C164.475 27.9825 162.289 25.5978 162.289 21.7838V21.7672C162.289 17.9615 164.491 15.5768 167.981 15.5768C171.48 15.5768 173.665 17.9615 173.665 21.7672V21.7838C173.665 25.5978 171.488 27.9825 167.981 27.9825ZM167.981 26.1213C170.15 26.1213 171.488 24.4262 171.488 21.7838V21.7672C171.488 19.1082 170.125 17.4381 167.981 17.4381C165.846 17.4381 164.475 19.0999 164.475 21.7672V21.7838C164.475 24.4511 165.838 26.1213 167.981 26.1213ZM177.819 27.7748L174.603 15.7845H176.83L178.916 24.8333H178.958L181.359 15.7845H183.303L185.705 24.8333H185.746L187.832 15.7845H190.059L186.843 27.7748H184.774L182.356 19.1747H182.306L179.888 27.7748H177.819ZM192.393 23.7614L192.227 15.7845H194.363L194.196 23.7614H192.393ZM193.291 27.8662C192.618 27.8662 192.086 27.351 192.086 26.6946C192.086 26.0299 192.618 25.523 193.291 25.523C193.972 25.523 194.504 26.0299 194.504 26.6946C194.504 27.351 193.972 27.8662 193.291 27.8662ZM197.819 23.7614L197.653 15.7845H199.788L199.622 23.7614H197.819ZM198.716 27.8662C198.043 27.8662 197.511 27.351 197.511 26.6946C197.511 26.0299 198.043 25.523 198.716 25.523C199.398 25.523 199.929 26.0299 199.929 26.6946C199.929 27.351 199.398 27.8662 198.716 27.8662ZM203.245 23.7614L203.078 15.7845H205.214L205.048 23.7614H203.245ZM204.142 27.8662C203.469 27.8662 202.937 27.351 202.937 26.6946C202.937 26.0299 203.469 25.523 204.142 25.523C204.823 25.523 205.355 26.0299 205.355 26.6946C205.355 27.351 204.823 27.8662 204.142 27.8662Z" fill="white"/>
</g>
<defs>
<filter id="filter0_dddd_210_943" x="0" y="0" width="238" height="88.5193" filterUnits="userSpaceOnUse" color-interpolation-filters="sRGB">
<feFlood flood-opacity="0" result="BackgroundImageFix"/>
<feColorMatrix in="SourceAlpha" type="matrix" values="0 0 0 0 0 0 0 0 0 0 0 0 0 0 0 0 0 0 127 0" result="hardAlpha"/>
<feOffset dy="2"/>
<feGaussianBlur stdDeviation="2"/>
<feColorMatrix type="matrix" values="0 0 0 0 0 0 0 0 0 0 0 0 0 0 0 0 0 0 0.1 0"/>
<feBlend mode="normal" in2="BackgroundImageFix" result="effect1_dropShadow_210_943"/>
<feColorMatrix in="SourceAlpha" type="matrix" values="0 0 0 0 0 0 0 0 0 0 0 0 0 0 0 0 0 0 127 0" result="hardAlpha"/>
<feOffset dx="1" dy="7"/>
<feGaussianBlur stdDeviation="3.5"/>
<feColorMatrix type="matrix" values="0 0 0 0 0 0 0 0 0 0 0 0 0 0 0 0 0 0 0.09 0"/>
<feBlend mode="normal" in2="effect1_dropShadow_210_943" result="effect2_dropShadow_210_943"/>
<feColorMatrix in="SourceAlpha" type="matrix" values="0 0 0 0 0 0 0 0 0 0 0 0 0 0 0 0 0 0 127 0" result="hardAlpha"/>
<feOffset dx="2" dy="16"/>
<feGaussianBlur stdDeviation="5"/>
<feColorMatrix type="matrix" values="0 0 0 0 0 0 0 0 0 0 0 0 0 0 0 0 0 0 0.05 0"/>
<feBlend mode="normal" in2="effect2_dropShadow_210_943" result="effect3_dropShadow_210_943"/>
<feColorMatrix in="SourceAlpha" type="matrix" values="0 0 0 0 0 0 0 0 0 0 0 0 0 0 0 0 0 0 127 0" result="hardAlpha"/>
<feOffset dx="4" dy="29"/>
<feGaussianBlur stdDeviation="6"/>
<feColorMatrix type="matrix" values="0 0 0 0 0 0 0 0 0 0 0 0 0 0 0 0 0 0 0.01 0"/>
<feBlend mode="normal" in2="effect3_dropShadow_210_943" result="effect4_dropShadow_210_943"/>
<feBlend mode="normal" in="SourceGraphic" in2="effect4_dropShadow_210_943" result="shape"/>
</filter>
<linearGradient id="paint0_linear_210_943" x1="118.469" y1="41.1152" x2="118.469" y2="-0.501406" gradientUnits="userSpaceOnUse">
<stop stop-color="#2B5CFF"/>
<stop offset="1" stop-color="#932CE2"/>
</linearGradient>
</defs>
</svg>
