<svg width="18" height="18" viewBox="0 0 18 18" fill="none" xmlns="http://www.w3.org/2000/svg">
<path d="M4.15527 16.6152H14.5391V18H4.1543V16.6152H2.77051V11.0771H4.15527V16.6152ZM9.6709 0.0458984L9.66406 1.41406L13.2764 1.43164L13.2705 2.80371L13.2764 2.80469L13.2705 4.15332H14.54V7.61523H18V9H15.9238V16.6152H14.5391V13.1543H12.4629V11.7695H14.5391V9H2.76953V11.0771H1.38477V9H0V7.61523H4.84668V4.15332H5.82129L3.60645 4.14258L3.6123 2.76953H3.60645L3.6123 1.40137L0.000976562 1.38477L0.0078125 0L9.6709 0.0458984ZM9.00098 13.1543H12.4619V14.5381H9V13.1543H6.92383V11.7695H9.00098V13.1543ZM9 7.61523H13.1553V5.53809H9.00098V4.16797H9V7.61523Z" fill="#80FF80"/>
</svg>
