<svg width="14" height="14" viewBox="0 0 14 14" fill="none" xmlns="http://www.w3.org/2000/svg">
<path fill-rule="evenodd" clip-rule="evenodd" d="M5.24935 4.08366V2.91699L4.08268 2.91699L4.08268 4.08366H2.91602V5.25033H4.08268V6.41699H5.24935V5.25033H6.41602V4.08366H5.24935ZM5.24935 4.08366V5.25033H4.08268V4.08366H5.24935Z" fill="#80FF80" fill-opacity="0.6"/>
<path fill-rule="evenodd" clip-rule="evenodd" d="M9.91602 4.08366V2.91699L8.74935 2.91699V4.08366H7.58268V5.25033H8.74935V6.41699H9.91602V5.25033H11.0827V4.08366H9.91602ZM9.91602 4.08366V5.25033H8.74935V4.08366H9.91602Z" fill="#80FF80" fill-opacity="0.6"/>
<path fill-rule="evenodd" clip-rule="evenodd" d="M9.91602 8.75033V7.58366H8.74935V8.75033H7.58268V9.91699H8.74935V11.0837H9.91602V9.91699H11.0827V8.75033H9.91602ZM9.91602 8.75033V9.91699H8.74935V8.75033H9.91602Z" fill="#80FF80" fill-opacity="0.6"/>
<path d="M5.24935 7.58366V8.75033H4.08268V7.58366H5.24935Z" fill="#80FF80" fill-opacity="0.6"/>
<path d="M4.08268 9.91699H2.91602L2.91602 8.75033H4.08268V9.91699Z" fill="#80FF80" fill-opacity="0.6"/>
<path d="M5.24935 9.91699V8.75033H6.41602V9.91699H5.24935Z" fill="#80FF80" fill-opacity="0.6"/>
<path d="M5.24935 9.91699H4.08268V11.0837H5.24935V9.91699Z" fill="#80FF80" fill-opacity="0.6"/>
</svg>
