<svg width="239" height="186" viewBox="0 0 239 186" fill="none" xmlns="http://www.w3.org/2000/svg">
<path opacity="0.04" d="M90.1651 0.859498C91.3065 -0.286499 93.1623 -0.286499 94.3037 0.859498L117.512 24.1603C118.653 25.3062 120.509 25.3062 121.65 24.1603L144.697 1.02161C145.839 -0.124263 147.695 -0.12435 148.836 1.02161L173.27 25.5538C173.817 26.1039 174.562 26.4131 175.339 26.4132H209.714C211.327 26.4132 212.634 27.7199 212.634 29.3322V63.8693C212.634 64.6413 212.94 65.3827 213.485 65.9298L238.149 90.6925C239.284 91.8316 239.284 93.6736 238.149 94.8126L213.485 119.575C212.941 120.122 212.634 120.863 212.634 121.635V156.128C212.634 157.74 211.327 159.047 209.714 159.047H175.384C174.607 159.047 173.862 159.356 173.314 159.906L148.836 184.484C147.695 185.629 145.839 185.629 144.697 184.484L121.488 161.183C120.347 160.037 118.491 160.037 117.35 161.183L94.3037 184.321C93.1624 185.467 91.3065 185.467 90.1651 184.321L65.6865 159.744C65.1386 159.194 64.3937 158.885 63.6172 158.885H28.8535C27.2408 158.885 25.9337 157.578 25.9336 155.966V121.038C25.9336 120.266 25.627 119.526 25.082 118.979L0.850603 94.6495C-0.283471 93.5105 -0.283598 91.6693 0.850603 90.5304L25.082 66.2023C25.627 65.6552 25.9336 64.9138 25.9336 64.1417V29.17C25.9336 27.5577 27.2407 26.2511 28.8535 26.2511H63.6612C64.4378 26.2511 65.1825 25.941 65.7305 25.3907L90.1651 0.859498ZM154.397 46.8243C141.363 46.8244 129.659 52.6989 121.641 62.0197C120.276 63.6059 117.789 63.6059 116.425 62.0197C108.407 52.6988 96.7028 46.8244 83.668 46.8243C59.4954 46.8243 39.8994 67.0262 39.8994 91.9464C39.8995 116.867 59.4954 137.068 83.668 137.068C96.7028 137.068 108.407 131.194 116.425 121.873C117.789 120.287 120.276 120.287 121.641 121.873C129.659 131.194 141.363 137.068 154.397 137.068C178.57 137.068 198.166 116.867 198.166 91.9464C198.166 67.0262 178.57 46.8243 154.397 46.8243Z" fill="#80FF80"/>
</svg>
