<svg width="141" height="35" viewBox="0 0 141 35" fill="none" xmlns="http://www.w3.org/2000/svg">
<mask id="path-1-inside-1_367_416" fill="white">
<path d="M135.033 2.79533C137.393 4.57018 138.574 5.4576 139.343 6.63991C139.699 7.18598 139.986 7.77343 140.199 8.38921C140.66 9.72244 140.637 11.199 140.589 14.1521L140.555 16.2574C140.436 23.6887 140.376 27.4044 138.041 29.7022C135.706 32 131.99 32 124.557 32H46.8271C45.5181 32 44.8636 32 44.2206 32.1054C43.5776 32.2109 42.9574 32.4199 41.717 32.838L37.7883 34.162C36.5479 34.5801 35.9277 34.7891 35.2847 34.8946C34.6417 35 33.9872 35 32.6783 35H16.0334C8.40142 35 4.58541 35 2.23616 32.6202C-0.1131 30.2404 -0.0638066 26.4247 0.0347796 18.7933L0.0735352 15.7933C0.16982 8.34007 0.217963 4.61345 2.55468 2.30673C4.8914 0 8.61833 0 16.0722 0H126.663C128.623 0 129.603 0 130.535 0.227111C130.968 0.332511 131.392 0.473885 131.801 0.649758C132.683 1.02872 133.466 1.61759 135.033 2.79533Z"/>
</mask>
<path d="M135.033 2.79533C137.393 4.57018 138.574 5.4576 139.343 6.63991C139.699 7.18598 139.986 7.77343 140.199 8.38921C140.66 9.72244 140.637 11.199 140.589 14.1521L140.555 16.2574C140.436 23.6887 140.376 27.4044 138.041 29.7022C135.706 32 131.99 32 124.557 32H46.8271C45.5181 32 44.8636 32 44.2206 32.1054C43.5776 32.2109 42.9574 32.4199 41.717 32.838L37.7883 34.162C36.5479 34.5801 35.9277 34.7891 35.2847 34.8946C34.6417 35 33.9872 35 32.6783 35H16.0334C8.40142 35 4.58541 35 2.23616 32.6202C-0.1131 30.2404 -0.0638066 26.4247 0.0347796 18.7933L0.0735352 15.7933C0.16982 8.34007 0.217963 4.61345 2.55468 2.30673C4.8914 0 8.61833 0 16.0722 0H126.663C128.623 0 129.603 0 130.535 0.227111C130.968 0.332511 131.392 0.473885 131.801 0.649758C132.683 1.02872 133.466 1.61759 135.033 2.79533Z" fill="#1A1A1A"/>
<path d="M135.033 2.79533C137.393 4.57018 138.574 5.4576 139.343 6.63991C139.699 7.18598 139.986 7.77343 140.199 8.38921C140.66 9.72244 140.637 11.199 140.589 14.1521L140.555 16.2574C140.436 23.6887 140.376 27.4044 138.041 29.7022C135.706 32 131.99 32 124.557 32H46.8271C45.5181 32 44.8636 32 44.2206 32.1054C43.5776 32.2109 42.9574 32.4199 41.717 32.838L37.7883 34.162C36.5479 34.5801 35.9277 34.7891 35.2847 34.8946C34.6417 35 33.9872 35 32.6783 35H16.0334C8.40142 35 4.58541 35 2.23616 32.6202C-0.1131 30.2404 -0.0638066 26.4247 0.0347796 18.7933L0.0735352 15.7933C0.16982 8.34007 0.217963 4.61345 2.55468 2.30673C4.8914 0 8.61833 0 16.0722 0H126.663C128.623 0 129.603 0 130.535 0.227111C130.968 0.332511 131.392 0.473885 131.801 0.649758C132.683 1.02872 133.466 1.61759 135.033 2.79533Z" fill="url(#paint0_linear_367_416)" fill-opacity="0.17"/>
<path d="M130.536 0.227111L130.772 -0.7445L130.536 0.227111ZM135.033 2.79533L135.634 1.99603L135.033 2.79533ZM131.801 0.649758L131.406 1.56854L131.801 0.649758ZM2.23616 32.6202L2.94781 31.9177L2.23616 32.6202ZM37.7883 34.162L38.1077 35.1097L37.7883 34.162ZM35.2847 34.8946L35.1229 33.9077L35.2847 34.8946ZM41.717 32.838L41.3977 31.8903L41.717 32.838ZM44.2206 32.1054L44.3825 33.0923L44.2206 32.1054ZM140.555 16.2574L141.555 16.2735L140.555 16.2574ZM138.041 29.7022L138.742 30.415L138.041 29.7022ZM140.589 14.1521L139.589 14.136L140.589 14.1521ZM140.199 8.38921L139.254 8.71609L140.199 8.38921ZM139.343 6.63991L138.505 7.18545L139.343 6.63991ZM140.589 14.1521L139.589 14.136L139.555 16.2414L140.555 16.2574L141.555 16.2735L141.589 14.1682L140.589 14.1521ZM124.557 32V31H46.8271V32V33H124.557V32ZM41.717 32.838L41.3977 31.8903L37.4689 33.2144L37.7883 34.162L38.1077 35.1097L42.0364 33.7856L41.717 32.838ZM32.6783 35V34H16.0334V35V36H32.6783V35ZM0.0347796 18.7933L1.0347 18.8062L1.07345 15.8062L0.0735352 15.7933L-0.926381 15.7804L-0.965137 18.7804L0.0347796 18.7933ZM16.0722 0V1H126.663V0V-1H16.0722V0ZM126.663 0V1C128.67 1 129.51 1.00655 130.299 1.19872L130.536 0.227111L130.772 -0.7445C129.696 -1.00655 128.576 -1 126.663 -1V0ZM135.033 2.79533L135.634 1.99603C134.105 0.846712 133.213 0.168236 132.196 -0.269022L131.801 0.649758L131.406 1.56854C132.153 1.88921 132.827 2.38847 134.432 3.59463L135.033 2.79533ZM130.536 0.227111L130.299 1.19872C130.678 1.29095 131.048 1.41465 131.406 1.56854L131.801 0.649758L132.196 -0.269022C131.735 -0.466879 131.259 -0.625925 130.772 -0.7445L130.536 0.227111ZM0.0735352 15.7933L1.07345 15.8062C1.12196 12.0515 1.15914 9.33555 1.46332 7.26546C1.76328 5.22406 2.30476 3.95861 3.25721 3.01839L2.55468 2.30673L1.85216 1.59507C0.467886 2.96157 -0.183069 4.7128 -0.515431 6.9747C-0.843576 9.20791 -0.878602 12.0819 -0.926381 15.7804L0.0735352 15.7933ZM16.0722 0V-1C12.3733 -1 9.49919 -1.0021 7.26193 -0.702831C4.99592 -0.399715 3.23643 0.228564 1.85216 1.59507L2.55468 2.30673L3.25721 3.01839C4.20965 2.07816 5.48199 1.55308 7.5271 1.27951C9.60095 1.0021 12.3172 1 16.0722 1V0ZM16.0334 35V34C12.189 34 9.40679 33.9979 7.28766 33.7115C5.1973 33.4291 3.90484 32.8871 2.94781 31.9177L2.23616 32.6202L1.5245 33.3227C2.91673 34.7331 4.7069 35.381 7.01987 35.6935C9.30406 36.0021 12.2459 36 16.0334 36V35ZM0.0347796 18.7933L-0.965137 18.7804C-1.01406 22.5676 -1.05421 25.5092 -0.775115 27.7972C-0.492505 30.114 0.132264 31.9124 1.5245 33.3227L2.23616 32.6202L2.94781 31.9177C1.99079 30.9482 1.46558 29.6489 1.21017 27.555C0.951243 25.4324 0.985035 22.6504 1.0347 18.8062L0.0347796 18.7933ZM37.7883 34.162L37.4689 33.2144C36.1992 33.6423 35.6672 33.8185 35.1229 33.9077L35.2847 34.8946L35.4465 35.8814C36.1882 35.7598 36.8965 35.5179 38.1077 35.1097L37.7883 34.162ZM32.6783 35V36C33.9563 36 34.7048 36.003 35.4465 35.8814L35.2847 34.8946L35.1229 33.9077C34.5785 33.997 34.0181 34 32.6783 34V35ZM46.8271 32V31C45.549 31 44.8005 30.997 44.0588 31.1186L44.2206 32.1054L44.3825 33.0923C44.9268 33.003 45.4872 33 46.8271 33V32ZM41.717 32.838L42.0364 33.7856C43.3061 33.3577 43.8381 33.1815 44.3825 33.0923L44.2206 32.1054L44.0588 31.1186C43.3172 31.2402 42.6088 31.4821 41.3977 31.8903L41.717 32.838ZM140.555 16.2574L139.555 16.2414C139.495 19.985 139.45 22.6929 139.14 24.7565C138.835 26.7915 138.291 28.0528 137.339 28.9894L138.041 29.7022L138.742 30.415C140.125 29.0538 140.78 27.3084 141.118 25.0532C141.452 22.8268 141.496 19.9612 141.555 16.2735L140.555 16.2574ZM124.557 32V33C128.245 33 131.111 33.0021 133.343 32.704C135.603 32.402 137.359 31.7761 138.742 30.415L138.041 29.7022L137.339 28.9894C136.388 29.9261 135.118 30.4491 133.078 30.7216C131.01 30.9979 128.302 31 124.557 31V32ZM140.589 14.1521L141.589 14.1682C141.635 11.2889 141.677 9.60142 141.144 8.06232L140.199 8.38921L139.254 8.71609C139.644 9.84346 139.638 11.1091 139.589 14.136L140.589 14.1521ZM135.033 2.79533L134.432 3.59463C136.852 5.41386 137.855 6.1857 138.505 7.18545L139.343 6.63991L140.182 6.09436C139.293 4.7295 137.935 3.7265 135.634 1.99603L135.033 2.79533ZM140.199 8.38921L141.144 8.06232C140.905 7.36958 140.581 6.70869 140.182 6.09436L139.343 6.63991L138.505 7.18545C138.816 7.66326 139.068 8.17728 139.254 8.71609L140.199 8.38921Z" fill="#80FF80" fill-opacity="0.4" mask="url(#path-1-inside-1_367_416)"/>
<defs>
<linearGradient id="paint0_linear_367_416" x1="-3.00155e-08" y1="1.67787" x2="140.793" y2="1.67787" gradientUnits="userSpaceOnUse">
<stop stop-color="#80FF80" stop-opacity="0.2"/>
<stop offset="1" stop-color="#80FF80"/>
</linearGradient>
</defs>
</svg>
