<svg width="326" height="35" viewBox="0 0 326 35" fill="none" xmlns="http://www.w3.org/2000/svg">
<mask id="path-1-inside-1_311_551" fill="white">
<path d="M320.033 2.79533C322.393 4.57018 323.574 5.4576 324.343 6.63991C324.699 7.18598 324.986 7.77343 325.199 8.38921C325.66 9.72244 325.637 11.199 325.589 14.1521L325.555 16.2574C325.436 23.6887 325.376 27.4044 323.041 29.7022C320.706 32 316.99 32 309.557 32H86.1259C84.8169 32 84.1625 32 83.5195 32.1054C82.8765 32.2109 82.2563 32.4199 81.0159 32.838L77.0871 34.162C75.8467 34.5801 75.2265 34.7891 74.5835 34.8946C73.9405 35 73.286 35 71.9771 35H16.0334C8.40142 35 4.58541 35 2.23616 32.6202C-0.1131 30.2404 -0.0638066 26.4247 0.0347796 18.7933L0.0735352 15.7933C0.16982 8.34007 0.217963 4.61345 2.55468 2.30673C4.8914 0 8.61833 0 16.0722 0H311.663C313.623 0 314.603 0 315.535 0.227111C315.968 0.332511 316.392 0.473885 316.801 0.649758C317.683 1.02872 318.466 1.61759 320.033 2.79533Z"/>
</mask>
<path d="M320.033 2.79533C322.393 4.57018 323.574 5.4576 324.343 6.63991C324.699 7.18598 324.986 7.77343 325.199 8.38921C325.66 9.72244 325.637 11.199 325.589 14.1521L325.555 16.2574C325.436 23.6887 325.376 27.4044 323.041 29.7022C320.706 32 316.99 32 309.557 32H86.1259C84.8169 32 84.1625 32 83.5195 32.1054C82.8765 32.2109 82.2563 32.4199 81.0159 32.838L77.0871 34.162C75.8467 34.5801 75.2265 34.7891 74.5835 34.8946C73.9405 35 73.286 35 71.9771 35H16.0334C8.40142 35 4.58541 35 2.23616 32.6202C-0.1131 30.2404 -0.0638066 26.4247 0.0347796 18.7933L0.0735352 15.7933C0.16982 8.34007 0.217963 4.61345 2.55468 2.30673C4.8914 0 8.61833 0 16.0722 0H311.663C313.623 0 314.603 0 315.535 0.227111C315.968 0.332511 316.392 0.473885 316.801 0.649758C317.683 1.02872 318.466 1.61759 320.033 2.79533Z" fill="#1A1A1A"/>
<path d="M320.033 2.79533C322.393 4.57018 323.574 5.4576 324.343 6.63991C324.699 7.18598 324.986 7.77343 325.199 8.38921C325.66 9.72244 325.637 11.199 325.589 14.1521L325.555 16.2574C325.436 23.6887 325.376 27.4044 323.041 29.7022C320.706 32 316.99 32 309.557 32H86.1259C84.8169 32 84.1625 32 83.5195 32.1054C82.8765 32.2109 82.2563 32.4199 81.0159 32.838L77.0871 34.162C75.8467 34.5801 75.2265 34.7891 74.5835 34.8946C73.9405 35 73.286 35 71.9771 35H16.0334C8.40142 35 4.58541 35 2.23616 32.6202C-0.1131 30.2404 -0.0638066 26.4247 0.0347796 18.7933L0.0735352 15.7933C0.16982 8.34007 0.217963 4.61345 2.55468 2.30673C4.8914 0 8.61833 0 16.0722 0H311.663C313.623 0 314.603 0 315.535 0.227111C315.968 0.332511 316.392 0.473885 316.801 0.649758C317.683 1.02872 318.466 1.61759 320.033 2.79533Z" fill="url(#paint0_linear_311_551)" fill-opacity="0.17"/>
<path d="M315.535 0.227111L315.299 1.19872L315.535 0.227111ZM316.801 0.649758L317.196 -0.269022L316.801 0.649758ZM2.23616 32.6202L2.94781 31.9177L2.23616 32.6202ZM77.0871 34.162L76.7677 33.2144L77.0871 34.162ZM74.5835 34.8946L74.7453 35.8814L74.5835 34.8946ZM81.0159 32.838L80.6965 31.8903L81.0159 32.838ZM83.5195 32.1054L83.6813 33.0923L83.5195 32.1054ZM325.555 16.2574L326.555 16.2735L325.555 16.2574ZM323.041 29.7022L323.742 30.415L323.041 29.7022ZM325.589 14.1521L326.589 14.1682L325.589 14.1521ZM325.199 8.38921L326.144 8.06232L325.199 8.38921ZM324.343 6.63991L323.505 7.18545L324.343 6.63991ZM325.589 14.1521L324.589 14.136L324.555 16.2414L325.555 16.2574L326.555 16.2735L326.589 14.1682L325.589 14.1521ZM309.557 32V31H86.1259V32V33H309.557V32ZM81.0159 32.838L80.6965 31.8903L76.7677 33.2144L77.0871 34.162L77.4065 35.1097L81.3352 33.7856L81.0159 32.838ZM71.9771 35V34H16.0334V35V36H71.9771V35ZM0.0347796 18.7933L1.0347 18.8062L1.07345 15.8062L0.0735352 15.7933L-0.926381 15.7804L-0.965137 18.7804L0.0347796 18.7933ZM16.0722 0V1H311.663V0V-1H16.0722V0ZM311.663 0V1C313.67 1 314.51 1.00655 315.299 1.19872L315.535 0.227111L315.772 -0.7445C314.696 -1.00655 313.576 -1 311.663 -1V0ZM320.033 2.79533L320.634 1.99603C319.105 0.846712 318.213 0.168236 317.196 -0.269022L316.801 0.649758L316.406 1.56854C317.153 1.88921 317.828 2.38847 319.432 3.59463L320.033 2.79533ZM315.535 0.227111L315.299 1.19872C315.678 1.29095 316.048 1.41465 316.406 1.56854L316.801 0.649758L317.196 -0.269022C316.735 -0.466879 316.259 -0.625925 315.772 -0.7445L315.535 0.227111ZM0.0735352 15.7933L1.07345 15.8062C1.12196 12.0515 1.15914 9.33555 1.46332 7.26546C1.76328 5.22406 2.30476 3.95861 3.25721 3.01839L2.55468 2.30673L1.85216 1.59507C0.467886 2.96157 -0.183069 4.7128 -0.515431 6.9747C-0.843576 9.20791 -0.878602 12.0819 -0.926381 15.7804L0.0735352 15.7933ZM16.0722 0V-1C12.3733 -1 9.49919 -1.0021 7.26193 -0.702831C4.99592 -0.399715 3.23643 0.228564 1.85216 1.59507L2.55468 2.30673L3.25721 3.01839C4.20965 2.07816 5.48199 1.55308 7.5271 1.27951C9.60095 1.0021 12.3172 1 16.0722 1V0ZM16.0334 35V34C12.189 34 9.40679 33.9979 7.28766 33.7115C5.1973 33.4291 3.90484 32.8871 2.94781 31.9177L2.23616 32.6202L1.5245 33.3227C2.91673 34.7331 4.7069 35.381 7.01987 35.6935C9.30406 36.0021 12.2459 36 16.0334 36V35ZM0.0347796 18.7933L-0.965137 18.7804C-1.01406 22.5676 -1.05421 25.5092 -0.775115 27.7972C-0.492505 30.114 0.132264 31.9124 1.5245 33.3227L2.23616 32.6202L2.94781 31.9177C1.99079 30.9482 1.46558 29.6489 1.21017 27.555C0.951243 25.4324 0.985035 22.6504 1.0347 18.8062L0.0347796 18.7933ZM77.0871 34.162L76.7677 33.2144C75.498 33.6423 74.966 33.8185 74.4217 33.9077L74.5835 34.8946L74.7453 35.8814C75.487 35.7598 76.1954 35.5179 77.4065 35.1097L77.0871 34.162ZM71.9771 35V36C73.2551 36 74.0037 36.003 74.7453 35.8814L74.5835 34.8946L74.4217 33.9077C73.8774 33.997 73.317 34 71.9771 34V35ZM86.1259 32V31C84.8478 31 84.0993 30.997 83.3576 31.1186L83.5195 32.1054L83.6813 33.0923C84.2256 33.003 84.786 33 86.1259 33V32ZM81.0159 32.838L81.3352 33.7856C82.6049 33.3577 83.137 33.1815 83.6813 33.0923L83.5195 32.1054L83.3576 31.1186C82.616 31.2402 81.9076 31.4821 80.6965 31.8903L81.0159 32.838ZM325.555 16.2574L324.555 16.2414C324.495 19.985 324.45 22.6929 324.14 24.7565C323.835 26.7915 323.291 28.0528 322.339 28.9894L323.041 29.7022L323.742 30.415C325.125 29.0538 325.78 27.3084 326.118 25.0532C326.452 22.8268 326.496 19.9612 326.555 16.2735L325.555 16.2574ZM309.557 32V33C313.245 33 316.111 33.0021 318.343 32.704C320.603 32.402 322.359 31.7761 323.742 30.415L323.041 29.7022L322.339 28.9894C321.388 29.9261 320.118 30.4491 318.078 30.7216C316.01 30.9979 313.302 31 309.557 31V32ZM325.589 14.1521L326.589 14.1682C326.635 11.2889 326.677 9.60142 326.144 8.06232L325.199 8.38921L324.254 8.71609C324.644 9.84346 324.638 11.1091 324.589 14.136L325.589 14.1521ZM320.033 2.79533L319.432 3.59463C321.852 5.41386 322.855 6.1857 323.505 7.18545L324.343 6.63991L325.182 6.09436C324.293 4.7295 322.935 3.7265 320.634 1.99603L320.033 2.79533ZM325.199 8.38921L326.144 8.06232C325.905 7.36958 325.581 6.70869 325.182 6.09436L324.343 6.63991L323.505 7.18545C323.816 7.66326 324.068 8.17728 324.254 8.71609L325.199 8.38921Z" fill="#80FF80" fill-opacity="0.4" mask="url(#path-1-inside-1_311_551)"/>
<defs>
<linearGradient id="paint0_linear_311_551" x1="-6.95058e-08" y1="1.67787" x2="326.031" y2="1.67787" gradientUnits="userSpaceOnUse">
<stop stop-color="#80FF80" stop-opacity="0.2"/>
<stop offset="1" stop-color="#80FF80"/>
</linearGradient>
</defs>
</svg>
